<?xml version="1.0" encoding="utf-8"?>
<!-- Generator: Adobe Illustrator 28.0.0, SVG Export Plug-In . SVG Version: 6.00 Build 0)  -->
<svg version="1.1" id="Layer_1" xmlns="http://www.w3.org/2000/svg" xmlns:xlink="http://www.w3.org/1999/xlink" x="0px" y="0px"
	 viewBox="0 0 243.8 59.9" style="enable-background:new 0 0 243.8 59.9;" xml:space="preserve">
<style type="text/css">
	.st0{fill:#010101;}
</style>
<g>
	<path d="M12.2,12l-1.9,0H8.2v-0.5c0.2,0,0.4,0,0.5-0.1c0.1-0.1,0.2-0.2,0.2-0.3c0-0.1-0.1-0.5-0.3-1.1C8.5,9.8,8.4,9.5,8.3,9.2H5.6
		C5.5,9.5,5.4,9.8,5.4,9.9c-0.2,0.6-0.3,0.9-0.3,1c0,0.2,0.2,0.4,0.5,0.5c0.1,0,0.3,0.1,0.5,0.1V12l-1.9,0H2.3v-0.5
		c0.2,0,0.3,0,0.4,0c0.6-0.1,0.9-0.2,1-0.5C4.1,10.2,4.5,9.2,5,7.9c0.6-1.5,0.9-2.5,1.1-2.9C6.5,4,6.7,3.5,6.8,3.4l1.3-0.6l2.9,8.1
		c0.1,0.3,0.3,0.4,0.7,0.5c0.1,0,0.3,0,0.5,0.1V12z M8,8.4c0-0.2-0.1-0.6-0.3-1.2C7.4,6.5,7.2,5.9,7,5.2C6.9,5.4,6.7,6.1,6.3,7
		C6.2,7.4,6.1,7.8,5.9,8.4H8z"/>
	<path d="M16.3,12l-1.9,0h-2.2v-0.5c0.3,0,0.6,0,0.8-0.1s0.3-0.2,0.3-0.4V2.4c0-0.2-0.1-0.4-0.3-0.5s-0.4-0.2-0.7-0.2l-0.4,0V1.3
		l3.4-0.4V11c0,0.2,0.1,0.3,0.3,0.4c0.2,0.1,0.4,0.1,0.8,0.1V12z M20.7,12l-2.9,0.1c-0.5-0.7-1-1.2-1.2-1.6
		c-0.8-1.1-1.3-1.6-1.3-1.7c0.6-0.7,1-1.2,1.2-1.6c0.3-0.5,0.4-1.1,0.4-1.7h3.1v0.4c-0.5,0-0.9,0-1,0.1c-0.2,0-0.4,0.2-0.6,0.4
		L16.9,8l2.7,3.2c0.1,0.2,0.3,0.3,0.4,0.3c0.1,0,0.4,0,0.7,0V12z"/>
	<path d="M27.5,11.7L25.1,12l-0.5-1c-0.1,0.3-0.4,0.5-0.9,0.7C23.3,12,22.9,12,22.5,12c-0.7,0-1.1-0.2-1.4-0.6
		c-0.2-0.3-0.3-0.8-0.3-1.4c0-0.7,0.2-1.2,0.6-1.4c0.4-0.2,1.2-0.3,2.4-0.3h0.7V7.1c0-0.4-0.1-0.7-0.3-0.9C24.1,6,23.9,6,23.7,6
		c-0.3,0-0.6,0.1-0.7,0.3c-0.2,0.2-0.2,0.6-0.2,1.2c0,0.1-0.1,0.1-0.3,0.2c-0.2,0-0.4,0.1-0.7,0.1h-0.6V6.9c0-0.5,0.2-0.9,0.6-1.2
		c0.4-0.2,1.1-0.4,2-0.4c1,0,1.7,0.1,2.1,0.3c0.5,0.2,0.7,0.7,0.7,1.5v2.9c0,0.4,0.1,0.8,0.2,0.9c0.1,0.1,0.3,0.2,0.6,0.2l0.2,0
		V11.7z M24.5,10.1V8.9H24c-0.9,0-1.4,0.3-1.4,1c0,0.3,0,0.6,0.1,0.7c0.1,0.3,0.3,0.4,0.6,0.4c0.3,0,0.6-0.1,0.8-0.2
		C24.4,10.7,24.5,10.4,24.5,10.1z"/>
	<path d="M33.6,6.2c0,0.2-0.1,0.5-0.2,0.8c-0.1,0.3-0.2,0.5-0.3,0.5c0,0-0.3-0.2-0.7-0.6c-0.2-0.2-0.4-0.3-0.6-0.3
		c-0.3,0-0.6,0.2-0.7,0.5c-0.2,0.4-0.3,0.8-0.3,1.2v2.5c0,0.2,0.1,0.3,0.3,0.4c0.2,0.1,0.5,0.2,0.8,0.2V12l-2,0h-1.9v-0.5
		c0.3,0,0.5,0,0.7-0.1c0.1-0.1,0.2-0.2,0.2-0.3V7c0-0.2-0.1-0.3-0.2-0.5c-0.1-0.1-0.3-0.2-0.6-0.2c-0.1,0-0.2,0-0.4,0
		c0,0-0.1,0-0.1,0V5.9c0.6-0.1,1.2-0.2,2.1-0.3c0.4-0.1,0.8-0.2,1.3-0.2l0.1,1.1c0.2-0.2,0.4-0.5,0.8-0.7c0.4-0.2,0.7-0.4,0.9-0.4
		c0.2,0,0.4,0.1,0.6,0.3C33.5,5.9,33.6,6,33.6,6.2z"/>
	<path d="M38,12l-1.9,0L34,12v-0.5c0.2,0,0.4,0,0.5,0c0.4-0.1,0.5-0.3,0.5-0.5V7.1c0-0.3-0.1-0.5-0.2-0.7c-0.2-0.2-0.4-0.2-0.8-0.2
		h-0.3V5.8c0.5,0,1.1-0.1,1.9-0.2c0.8-0.1,1.3-0.2,1.4-0.2V11c0,0.2,0.2,0.4,0.5,0.5c0.1,0,0.3,0,0.5,0.1V12z M37,2.5
		c0,0.3-0.1,0.5-0.3,0.8c-0.2,0.2-0.5,0.4-0.8,0.4c-0.2,0-0.5-0.1-0.7-0.3c-0.3-0.2-0.4-0.5-0.4-0.7c0-0.3,0.1-0.5,0.3-0.8
		c0.2-0.2,0.5-0.4,0.7-0.4c0.3,0,0.6,0.1,0.8,0.3C36.9,2,37,2.3,37,2.5z"/>
	<path d="M55.2,12L53,12c-0.4,0-0.9,0-1.4,0c-0.5,0-0.8,0-0.8,0v-0.4c0.4,0,0.6-0.1,0.8-0.2c0.2-0.2,0.4-0.6,0.4-1.3V4.8
		c-0.2,0.5-0.3,0.9-0.5,1.3c-0.3,0.8-0.6,1.8-1,2.9c-0.4,1.3-0.7,2.3-0.9,2.8c0,0.1-0.3,0.1-0.7,0.2c-0.1,0-0.4,0-0.7,0
		c-0.2-0.6-0.5-1.2-0.7-1.8c-0.6-1.5-1-2.6-1.3-3.4c-0.5-1.2-0.8-1.9-0.9-1.9l-0.1,6.1c0,0.2,0.1,0.4,0.3,0.5
		c0.2,0.1,0.5,0.2,0.9,0.2h0.4V12l-2,0c-0.4,0-0.8,0-1.1,0s-0.7,0-1.1,0v-0.4c0.4,0,0.7,0,0.9-0.1c0.3-0.1,0.4-0.4,0.4-0.7L44,4.3
		c0-0.5-0.5-0.8-1.5-0.8V3l2,0.1L46.8,3c0.2,0.5,0.3,1.1,0.5,1.6c0.4,1.1,0.7,2.2,1,3.1c0.4,1.1,0.6,1.7,0.7,1.8
		c0.1-0.2,0.4-0.9,0.8-2c0.3-1,0.6-2,0.9-3C50.9,4,51,3.5,51.2,3l1.7,0.1L55.1,3v0.5c-0.1,0-0.1,0-0.2,0c-0.3,0-0.6,0.1-0.9,0.2
		c-0.3,0.2-0.4,0.4-0.4,0.6l0.1,6.4c0,0.2,0.1,0.4,0.4,0.5c0.3,0.1,0.6,0.2,1,0.2V12z"/>
	<path d="M62.2,8.7l-4,0.4c0,0.6,0.1,1,0.3,1.3c0.3,0.5,0.8,0.7,1.6,0.7c0.5,0,0.9,0,1.2-0.1c0.1,0,0.3-0.1,0.7-0.3v0.7
		c-0.4,0.1-0.6,0.3-0.9,0.3c-0.7,0.2-1.3,0.3-1.9,0.3c-1,0-1.8-0.2-2.2-0.5c-0.6-0.5-0.9-1.4-0.9-2.8c0-1.2,0.3-2.1,0.9-2.7
		c0.5-0.5,1.3-0.7,2.4-0.7c1.3,0,2.1,0.3,2.5,1C62.1,6.7,62.2,7.5,62.2,8.7z M60.3,8.3c0-0.8-0.1-1.4-0.2-1.7C60,6.2,59.8,6,59.5,6
		c-0.5,0-0.9,0.2-1.1,0.7c-0.2,0.4-0.2,0.9-0.2,1.5v0.3c0.2,0,0.6,0,1.2-0.1C59.6,8.4,59.9,8.3,60.3,8.3z"/>
	<path d="M71.2,11.7L68.7,12l-0.4-1c-0.2,0.3-0.4,0.5-0.8,0.7C67.2,12,66.9,12,66.6,12c-0.9,0-1.6-0.3-2.1-0.8
		c-0.6-0.6-0.9-1.5-0.9-2.7c0-1.2,0.3-2,0.8-2.5c0.6-0.5,1.5-0.7,2.8-0.7h0.9V2.2c0-0.2-0.1-0.3-0.2-0.4c-0.2-0.1-0.4-0.1-0.6-0.1
		l-0.6,0V1.2c0.6-0.1,1.1-0.1,1.4-0.1c0.9-0.1,1.6-0.2,2-0.3v9.7c0,0.4,0.3,0.6,0.8,0.6l0.2,0V11.7z M68.2,9.7V6.3
		c0-0.1-0.1-0.2-0.2-0.2C67.8,6,67.6,6,67.4,6c-0.5,0-0.9,0.2-1.2,0.5c-0.4,0.4-0.6,1-0.6,1.9c0,0.8,0.2,1.5,0.5,2
		c0.3,0.5,0.7,0.8,1,0.8c0.3,0,0.6-0.1,0.8-0.4C68.1,10.5,68.2,10.1,68.2,9.7z"/>
	<path d="M75.8,12L74,12l-2.2,0v-0.5c0.2,0,0.4,0,0.5,0c0.4-0.1,0.5-0.3,0.5-0.5V7.1c0-0.3-0.1-0.5-0.2-0.7s-0.4-0.2-0.8-0.2h-0.3
		V5.8c0.5,0,1.1-0.1,1.9-0.2c0.8-0.1,1.3-0.2,1.4-0.2V11c0,0.2,0.2,0.4,0.5,0.5c0.1,0,0.3,0,0.5,0.1V12z M74.8,2.5
		c0,0.3-0.1,0.5-0.3,0.8c-0.2,0.2-0.5,0.4-0.8,0.4c-0.2,0-0.5-0.1-0.7-0.3c-0.3-0.2-0.4-0.5-0.4-0.7c0-0.3,0.1-0.5,0.3-0.8
		c0.2-0.2,0.5-0.4,0.7-0.4c0.3,0,0.6,0.1,0.8,0.3C74.7,2,74.8,2.3,74.8,2.5z"/>
	<path d="M83.5,11.7L81,12l-0.5-1c-0.1,0.3-0.4,0.5-0.9,0.7C79.3,12,78.9,12,78.5,12c-0.7,0-1.1-0.2-1.4-0.6
		c-0.2-0.3-0.3-0.8-0.3-1.4c0-0.7,0.2-1.2,0.6-1.4c0.4-0.2,1.2-0.3,2.4-0.3h0.7V7.1c0-0.4-0.1-0.7-0.3-0.9C80.1,6,79.9,6,79.7,6
		c-0.3,0-0.6,0.1-0.7,0.3c-0.2,0.2-0.2,0.6-0.2,1.2c0,0.1-0.1,0.1-0.3,0.2c-0.2,0-0.4,0.1-0.7,0.1h-0.6V6.9c0-0.5,0.2-0.9,0.6-1.2
		c0.4-0.2,1.1-0.4,2-0.4c1,0,1.7,0.1,2.1,0.3c0.5,0.2,0.7,0.7,0.7,1.5v2.9c0,0.4,0.1,0.8,0.2,0.9c0.1,0.1,0.3,0.2,0.6,0.2l0.2,0
		V11.7z M80.5,10.1V8.9H80c-0.9,0-1.4,0.3-1.4,1c0,0.3,0,0.6,0.1,0.7c0.1,0.3,0.3,0.4,0.6,0.4c0.3,0,0.6-0.1,0.8-0.2
		C80.4,10.7,80.5,10.4,80.5,10.1z"/>
</g>
<path class="st0" d="M109,12.6l-6.3-2.4l1.5-1.8L109,12.6l-4.2-5.1l4.1-5.1l-4.8,4.3l-1.7-1.9l6.3-2.4l-5,1.1l7.3-5.1l-0.1,0.1
	l-9.6,4.5l-3-8.6l1.9,9.8l-1.2,0.3l-0.8-9.9v-0.2v0.1l0,0v-0.1v0.2l-3.1,8.4l-9.5-4.5l-0.1-0.1l7.3,5.1L88,2.5l6.3,2.4l-1.5,1.8
	L88,2.5l4.2,5.1l-4.1,5.1l4.8-4.3l1.7,1.9l-6.3,2.4l5-1.1l-7.3,5.1l0.1-0.1l9.6-4.5l3,8.6l-1.9-9.8l1.2-0.3l0.8,9.9v0.2v-0.1l0,0
	v0.1v-0.2l3.1-8.4l9.5,4.5l0.1,0.1l-7.3-5.1L109,12.6z M98.5-5.2l-0.7,9.8l-1.5-0.4L98.5-5.2z M96.2,9.5l-2.4-2.1l2.1-1.9l2.6,1
	l2.4-0.9l2.4,2.1l-2.1,1.9l-2.6-1L96.2,9.5z M98.6,20.3l0.7-9.8l1.5,0.4L98.6,20.3z"/>
</svg>
