<?xml version="1.0" encoding="utf-8"?>
<!-- Generator: Adobe Illustrator 28.0.0, SVG Export Plug-In . SVG Version: 6.00 Build 0)  -->
<svg version="1.1" id="Layer_1" xmlns="http://www.w3.org/2000/svg" xmlns:xlink="http://www.w3.org/1999/xlink" x="0px" y="0px"
	 viewBox="0 0 243.8 59.9" style="enable-background:new 0 0 243.8 59.9;" xml:space="preserve">
<style type="text/css">
	.st0{fill:#010101;}
</style>
<g>
	<path d="M24.5,13.9l-1.9,0h-2.2v-0.5c0.2,0,0.4,0,0.5-0.1c0.1-0.1,0.2-0.2,0.2-0.3c0-0.1-0.1-0.5-0.3-1.1c-0.1-0.2-0.2-0.5-0.3-0.9
		h-2.6c-0.1,0.3-0.2,0.6-0.3,0.8c-0.2,0.6-0.3,0.9-0.3,1c0,0.2,0.2,0.4,0.5,0.5c0.1,0,0.3,0.1,0.5,0.1v0.5l-1.9,0h-1.7v-0.5
		c0.2,0,0.3,0,0.4,0c0.6-0.1,0.9-0.2,1-0.5c0.4-0.8,0.8-1.9,1.3-3.1c0.6-1.5,0.9-2.5,1.1-2.9C18.7,6,19,5.5,19.1,5.4l1.3-0.6
		l2.9,8.1c0.1,0.3,0.3,0.4,0.7,0.5c0.1,0,0.3,0,0.5,0.1V13.9z M20.2,10.3c0-0.2-0.1-0.6-0.3-1.2c-0.2-0.7-0.4-1.4-0.7-2.1
		C19.1,7.4,18.9,8,18.6,9c-0.1,0.3-0.2,0.8-0.4,1.4H20.2z"/>
	<path d="M28.5,13.9l-1.9,0h-2.2v-0.5c0.3,0,0.6,0,0.8-0.1s0.3-0.2,0.3-0.4V4.3c0-0.2-0.1-0.4-0.3-0.5c-0.2-0.1-0.4-0.2-0.7-0.2
		l-0.4,0V3.2l3.4-0.4v10.1c0,0.2,0.1,0.3,0.3,0.4c0.2,0.1,0.4,0.1,0.8,0.1V13.9z M33,13.9L30.1,14c-0.5-0.7-1-1.2-1.2-1.6
		c-0.8-1.1-1.3-1.6-1.3-1.7c0.6-0.7,1-1.2,1.2-1.6c0.3-0.5,0.4-1.1,0.4-1.7h3.1v0.4c-0.5,0-0.9,0-1,0.1c-0.2,0-0.4,0.2-0.6,0.4
		l-1.6,1.6l2.7,3.2c0.1,0.2,0.3,0.3,0.4,0.3c0.1,0,0.4,0,0.7,0V13.9z"/>
	<path d="M39.8,13.6L37.3,14l-0.5-1c-0.1,0.3-0.4,0.5-0.9,0.7c-0.4,0.2-0.8,0.2-1.2,0.2c-0.7,0-1.1-0.2-1.4-0.6
		c-0.2-0.3-0.3-0.8-0.3-1.4c0-0.7,0.2-1.2,0.6-1.4c0.4-0.2,1.2-0.3,2.4-0.3h0.7V9c0-0.4-0.1-0.7-0.3-0.9C36.4,8,36.2,7.9,36,7.9
		c-0.3,0-0.6,0.1-0.7,0.3C35.1,8.4,35,8.8,35,9.4c0,0.1-0.1,0.1-0.3,0.2c-0.2,0-0.4,0.1-0.7,0.1h-0.6V8.8c0-0.5,0.2-0.9,0.6-1.2
		c0.4-0.2,1.1-0.4,2-0.4c1,0,1.7,0.1,2.1,0.3c0.5,0.2,0.7,0.7,0.7,1.5V12c0,0.4,0.1,0.8,0.2,0.9c0.1,0.1,0.3,0.2,0.6,0.2l0.2,0V13.6
		z M36.8,12v-1.1h-0.5c-0.9,0-1.4,0.3-1.4,1c0,0.3,0,0.6,0.1,0.7c0.1,0.3,0.3,0.4,0.6,0.4c0.3,0,0.6-0.1,0.8-0.2
		C36.7,12.6,36.8,12.4,36.8,12z"/>
	<path d="M45.8,8.2c0,0.2-0.1,0.5-0.2,0.8c-0.1,0.3-0.2,0.5-0.3,0.5c0,0-0.3-0.2-0.7-0.6c-0.2-0.2-0.4-0.3-0.6-0.3
		c-0.3,0-0.6,0.2-0.7,0.5C43.1,9.6,43,10,43,10.4v2.5c0,0.2,0.1,0.3,0.3,0.4c0.2,0.1,0.5,0.2,0.8,0.2v0.5l-2,0h-1.9v-0.5
		c0.3,0,0.5,0,0.7-0.1c0.1-0.1,0.2-0.2,0.2-0.3V9c0-0.2-0.1-0.3-0.2-0.5c-0.1-0.1-0.3-0.2-0.6-0.2c-0.1,0-0.2,0-0.4,0
		c0,0-0.1,0-0.1,0V7.9c0.6-0.1,1.2-0.2,2.1-0.3c0.4-0.1,0.8-0.2,1.3-0.2l0.1,1.1c0.2-0.2,0.4-0.5,0.8-0.7c0.4-0.2,0.7-0.4,0.9-0.4
		c0.2,0,0.4,0.1,0.6,0.3C45.7,7.8,45.8,8,45.8,8.2z"/>
	<path d="M50.2,13.9l-1.9,0l-2.2,0v-0.5c0.2,0,0.4,0,0.5,0c0.4-0.1,0.5-0.3,0.5-0.5V9.1c0-0.3-0.1-0.5-0.2-0.7
		c-0.2-0.2-0.4-0.2-0.8-0.2h-0.3V7.7c0.5,0,1.1-0.1,1.9-0.2c0.8-0.1,1.3-0.2,1.4-0.2v5.6c0,0.2,0.2,0.4,0.5,0.5c0.1,0,0.3,0,0.5,0.1
		V13.9z M49.2,4.5c0,0.3-0.1,0.5-0.3,0.8c-0.2,0.2-0.5,0.4-0.8,0.4c-0.2,0-0.5-0.1-0.7-0.3C47.1,5,47,4.8,47,4.6
		c0-0.3,0.1-0.5,0.3-0.8c0.2-0.2,0.5-0.4,0.7-0.4c0.3,0,0.6,0.1,0.8,0.3C49.1,4,49.2,4.2,49.2,4.5z"/>
	<path d="M67.5,13.9l-2.2,0c-0.4,0-0.9,0-1.4,0c-0.5,0-0.8,0-0.8,0v-0.4c0.4,0,0.6-0.1,0.8-0.2c0.2-0.2,0.4-0.6,0.4-1.3V6.7
		c-0.2,0.5-0.3,0.9-0.5,1.3c-0.3,0.8-0.6,1.8-1,2.9c-0.4,1.3-0.7,2.3-0.9,2.8c0,0.1-0.3,0.1-0.7,0.2c-0.1,0-0.4,0-0.7,0
		c-0.2-0.6-0.5-1.2-0.7-1.8c-0.6-1.5-1-2.6-1.3-3.4c-0.5-1.2-0.8-1.9-0.9-1.9l-0.1,6.1c0,0.2,0.1,0.4,0.3,0.5
		c0.2,0.1,0.5,0.2,0.9,0.2H59v0.5l-2,0c-0.4,0-0.8,0-1.1,0s-0.7,0-1.1,0v-0.4c0.4,0,0.7,0,0.9-0.1c0.3-0.1,0.4-0.4,0.4-0.7l0.1-6.4
		c0-0.5-0.5-0.8-1.5-0.8V4.9l2,0.1L59,4.9c0.2,0.5,0.3,1.1,0.5,1.6c0.4,1.1,0.7,2.2,1,3.1c0.4,1.1,0.6,1.7,0.7,1.8
		c0.1-0.2,0.4-0.9,0.8-2c0.3-1,0.6-2,0.9-3c0.1-0.5,0.3-1,0.4-1.5L65.1,5l2.3-0.1v0.5c-0.1,0-0.1,0-0.2,0c-0.3,0-0.6,0.1-0.9,0.2
		C66.1,5.8,66,6,66,6.3l0.1,6.4c0,0.2,0.1,0.4,0.4,0.5c0.3,0.1,0.6,0.2,1,0.2V13.9z"/>
	<path d="M74.5,10.7l-4,0.4c0,0.6,0.1,1,0.3,1.3c0.3,0.5,0.8,0.7,1.6,0.7c0.5,0,0.9,0,1.2-0.1c0.1,0,0.3-0.1,0.7-0.3v0.7
		c-0.4,0.1-0.6,0.3-0.9,0.3c-0.7,0.2-1.3,0.3-1.9,0.3c-1,0-1.8-0.2-2.2-0.5c-0.6-0.5-0.9-1.4-0.9-2.8c0-1.2,0.3-2.1,0.9-2.7
		c0.5-0.5,1.3-0.7,2.4-0.7c1.3,0,2.1,0.3,2.5,1C74.3,8.7,74.5,9.5,74.5,10.7z M72.5,10.2c0-0.8-0.1-1.4-0.2-1.7
		c-0.1-0.3-0.3-0.5-0.7-0.5c-0.5,0-0.9,0.2-1.1,0.7c-0.2,0.4-0.2,0.9-0.2,1.5v0.3c0.2,0,0.6,0,1.2-0.1
		C71.8,10.3,72.1,10.3,72.5,10.2z"/>
	<path d="M83.4,13.6L81,14l-0.4-1c-0.2,0.3-0.4,0.5-0.8,0.7c-0.3,0.2-0.6,0.3-0.9,0.3c-0.9,0-1.6-0.3-2.1-0.8
		c-0.6-0.6-0.9-1.5-0.9-2.7c0-1.2,0.3-2,0.8-2.5c0.6-0.5,1.5-0.7,2.8-0.7h0.9V4.1c0-0.2-0.1-0.3-0.2-0.4c-0.2-0.1-0.4-0.1-0.6-0.1
		l-0.6,0V3.2c0.6-0.1,1.1-0.1,1.4-0.1c0.9-0.1,1.6-0.2,2-0.3v9.7c0,0.4,0.3,0.6,0.8,0.6l0.2,0V13.6z M80.4,11.7V8.3
		c0-0.1-0.1-0.2-0.2-0.2c-0.2-0.1-0.3-0.1-0.6-0.1c-0.5,0-0.9,0.2-1.2,0.5c-0.4,0.4-0.6,1-0.6,1.9c0,0.8,0.2,1.5,0.5,2
		c0.3,0.5,0.7,0.8,1,0.8c0.3,0,0.6-0.1,0.8-0.4C80.3,12.4,80.4,12.1,80.4,11.7z"/>
	<path d="M88.1,13.9l-1.9,0l-2.2,0v-0.5c0.2,0,0.4,0,0.5,0c0.4-0.1,0.5-0.3,0.5-0.5V9.1c0-0.3-0.1-0.5-0.2-0.7
		c-0.2-0.2-0.4-0.2-0.8-0.2h-0.3V7.7c0.5,0,1.1-0.1,1.9-0.2c0.8-0.1,1.3-0.2,1.4-0.2v5.6c0,0.2,0.2,0.4,0.5,0.5c0.1,0,0.3,0,0.5,0.1
		V13.9z M87.1,4.5c0,0.3-0.1,0.5-0.3,0.8c-0.2,0.2-0.5,0.4-0.8,0.4c-0.2,0-0.5-0.1-0.7-0.3C85,5,84.8,4.8,84.8,4.6
		c0-0.3,0.1-0.5,0.3-0.8c0.2-0.2,0.5-0.4,0.7-0.4c0.3,0,0.6,0.1,0.8,0.3C87,4,87.1,4.2,87.1,4.5z"/>
	<path d="M95.8,13.6L93.3,14l-0.5-1c-0.1,0.3-0.4,0.5-0.9,0.7c-0.4,0.2-0.8,0.2-1.2,0.2c-0.7,0-1.1-0.2-1.4-0.6
		c-0.2-0.3-0.3-0.8-0.3-1.4c0-0.7,0.2-1.2,0.6-1.4c0.4-0.2,1.2-0.3,2.4-0.3h0.7V9c0-0.4-0.1-0.7-0.3-0.9c-0.1-0.1-0.3-0.2-0.5-0.2
		c-0.3,0-0.6,0.1-0.7,0.3C91.1,8.4,91,8.8,91,9.4c0,0.1-0.1,0.1-0.3,0.2c-0.2,0-0.4,0.1-0.7,0.1h-0.6V8.8c0-0.5,0.2-0.9,0.6-1.2
		c0.4-0.2,1.1-0.4,2-0.4c1,0,1.7,0.1,2.1,0.3c0.5,0.2,0.7,0.7,0.7,1.5V12c0,0.4,0.1,0.8,0.2,0.9c0.1,0.1,0.3,0.2,0.6,0.2l0.2,0V13.6
		z M92.8,12v-1.1h-0.5c-0.9,0-1.4,0.3-1.4,1c0,0.3,0,0.6,0.1,0.7c0.1,0.3,0.3,0.4,0.6,0.4c0.3,0,0.6-0.1,0.8-0.2
		C92.6,12.6,92.8,12.4,92.8,12z"/>
</g>
<path class="st0" d="M107.2,10.5l-2.7-1l0.6-0.8L107.2,10.5l-1.8-2.2l1.8-2.2L105.1,8l-0.7-0.8l2.7-1L105,6.7l3.2-2.2l0,0L104,6.5
	l-1.3-3.7l0.8,4.3L103,7.1l-0.4-4.3V2.7v0l0,0v0v0.1l-1.4,3.7l-4.1-1.9l0,0l3.2,2.2l-2.2-0.5l2.7,1L100.2,8l-2.1-1.8l1.8,2.2
	l-1.8,2.2l2.1-1.9l0.7,0.8l-2.7,1l2.1-0.5l-3.2,2.2l0,0l4.1-1.9l1.3,3.7l-0.8-4.3l0.5-0.1l0.4,4.3V14v0l0,0v0v-0.1l1.4-3.7l4.1,1.9
	l0,0l-3.2-2.2L107.2,10.5z M102.7,2.9l-0.3,4.3L101.7,7L102.7,2.9z M101.7,9.2l-1-0.9l0.9-0.8l1.1,0.4l1-0.4l1,0.9l-0.9,0.8
	l-1.1-0.4L101.7,9.2z M102.7,13.9l0.3-4.3l0.6,0.2L102.7,13.9z"/>
<path class="st0" d="M13.6,10.5l-2.7-1l0.6-0.8L13.6,10.5l-1.8-2.2l1.8-2.2L11.5,8l-0.7-0.8l2.7-1l-2.1,0.5l3.2-2.2l0,0l-4.1,1.9
	L9.1,2.7L9.9,7L9.4,7.1L9,2.8V2.7v0l0,0v0v0.1L7.7,6.5L3.6,4.5l0,0l3.2,2.2L4.5,6.2l2.7,1L6.6,8L4.5,6.2l1.8,2.2l-1.8,2.2l2.1-1.9
	l0.7,0.8l-2.7,1l2.1-0.5l-3.2,2.2l0,0l4.1-1.9L9.1,14L8.2,9.8l0.5-0.1l0.4,4.3V14v0l0,0v0v-0.1l1.4-3.7l4.1,1.9l0,0l-3.2-2.2
	L13.6,10.5z M9.1,2.9L8.8,7.1L8.1,7L9.1,2.9z M8.1,9.2L7,8.3L8,7.5l1.1,0.4l1-0.4l1,0.9l-0.9,0.8L9.1,8.8L8.1,9.2z M9.1,13.9
	l0.3-4.3l0.6,0.2L9.1,13.9z"/>
</svg>
