<?xml version="1.0" encoding="utf-8"?>
<!-- Generator: Adobe Illustrator 28.0.0, SVG Export Plug-In . SVG Version: 6.00 Build 0)  -->
<svg version="1.1" id="Layer_1" xmlns="http://www.w3.org/2000/svg" xmlns:xlink="http://www.w3.org/1999/xlink" x="0px" y="0px"
	 viewBox="0 0 56.2 14.3" style="enable-background:new 0 0 56.2 14.3;" xml:space="preserve">
<style type="text/css">
	.st0{fill:#010101;}
</style>
<g>
	<path d="M7.8,9.7L7,9.6H6V9.4c0.1,0,0.2,0,0.2,0c0.1,0,0.1-0.1,0.1-0.1c0-0.1,0-0.2-0.1-0.5c0-0.1-0.1-0.2-0.1-0.4H4.9
		C4.8,8.5,4.8,8.6,4.7,8.7C4.7,9,4.6,9.1,4.6,9.2c0,0.1,0.1,0.2,0.2,0.2c0,0,0.1,0,0.2,0v0.2l-0.9,0H3.4V9.4c0.1,0,0.1,0,0.2,0
		C3.8,9.4,4,9.3,4,9.2c0.2-0.4,0.3-0.8,0.6-1.4C4.8,7.1,5,6.7,5.1,6.5c0.2-0.4,0.3-0.6,0.3-0.7L6,5.5l1.3,3.6c0,0.1,0.1,0.2,0.3,0.2
		c0.1,0,0.1,0,0.2,0V9.7z M5.9,8c0-0.1-0.1-0.3-0.1-0.5C5.7,7.2,5.6,6.9,5.5,6.6C5.4,6.7,5.3,7,5.2,7.4C5.1,7.6,5.1,7.8,5,8H5.9z"/>
	<path d="M9.7,9.7l-0.8,0h-1V9.4c0.1,0,0.3,0,0.3-0.1c0.1,0,0.1-0.1,0.1-0.2V5.3c0-0.1,0-0.2-0.1-0.2S7.9,5,7.8,5l-0.2,0V4.8
		l1.5-0.2v4.5c0,0.1,0,0.2,0.1,0.2c0.1,0,0.2,0.1,0.3,0.1V9.7z M11.6,9.7l-1.3,0C10.1,9.4,9.9,9.1,9.8,9C9.4,8.5,9.2,8.2,9.2,8.2
		c0.3-0.3,0.4-0.5,0.5-0.7C9.9,7.3,9.9,7,9.9,6.7h1.4v0.2c-0.2,0-0.4,0-0.5,0c-0.1,0-0.2,0.1-0.3,0.2L9.9,7.9l1.2,1.4
		c0.1,0.1,0.1,0.1,0.2,0.1c0.1,0,0.2,0,0.3,0V9.7z"/>
	<path d="M14.7,9.5l-1.1,0.2l-0.2-0.4c0,0.1-0.2,0.2-0.4,0.3c-0.2,0.1-0.4,0.1-0.5,0.1c-0.3,0-0.5-0.1-0.6-0.3
		c-0.1-0.1-0.1-0.3-0.1-0.6c0-0.3,0.1-0.5,0.3-0.6C12.2,8.1,12.5,8,13.1,8h0.3V7.4c0-0.2,0-0.3-0.1-0.4C13.2,7,13.1,6.9,13,6.9
		c-0.2,0-0.3,0-0.3,0.1c-0.1,0.1-0.1,0.3-0.1,0.5c0,0,0,0.1-0.1,0.1c-0.1,0-0.2,0-0.3,0h-0.3V7.4c0-0.2,0.1-0.4,0.3-0.5
		c0.2-0.1,0.5-0.2,0.9-0.2c0.5,0,0.8,0,0.9,0.1c0.2,0.1,0.3,0.3,0.3,0.7v1.3c0,0.2,0,0.3,0.1,0.4c0.1,0.1,0.1,0.1,0.3,0.1l0.1,0V9.5
		z M13.4,8.8V8.3h-0.2c-0.4,0-0.6,0.2-0.6,0.5c0,0.1,0,0.3,0.1,0.3c0.1,0.1,0.2,0.2,0.3,0.2c0.1,0,0.3,0,0.3-0.1
		C13.3,9.1,13.4,8.9,13.4,8.8z"/>
	<path d="M17.4,7.1c0,0.1,0,0.2-0.1,0.4c-0.1,0.2-0.1,0.2-0.1,0.2c0,0-0.1-0.1-0.3-0.3c-0.1-0.1-0.2-0.1-0.3-0.1
		c-0.1,0-0.2,0.1-0.3,0.2c-0.1,0.2-0.1,0.3-0.1,0.5v1.1c0,0.1,0,0.1,0.1,0.2c0.1,0,0.2,0.1,0.4,0.1v0.2l-0.9,0h-0.9V9.4
		c0.1,0,0.2,0,0.3-0.1c0.1,0,0.1-0.1,0.1-0.2V7.4c0-0.1,0-0.2-0.1-0.2c-0.1-0.1-0.2-0.1-0.3-0.1c0,0-0.1,0-0.2,0c0,0,0,0-0.1,0V6.9
		c0.2,0,0.6-0.1,0.9-0.1c0.2,0,0.4-0.1,0.6-0.1l0.1,0.5c0.1-0.1,0.2-0.2,0.3-0.3c0.2-0.1,0.3-0.2,0.4-0.2c0.1,0,0.2,0,0.3,0.1
		C17.4,6.9,17.4,7,17.4,7.1z"/>
	<path d="M19.4,9.7l-0.8,0l-1,0V9.4c0.1,0,0.2,0,0.2,0c0.2,0,0.2-0.1,0.2-0.2V7.5c0-0.1,0-0.2-0.1-0.3c-0.1-0.1-0.2-0.1-0.4-0.1
		h-0.1V6.9c0.2,0,0.5,0,0.9-0.1c0.4-0.1,0.6-0.1,0.6-0.1v2.5c0,0.1,0.1,0.2,0.2,0.2c0,0,0.1,0,0.2,0V9.7z M18.9,5.4
		c0,0.1-0.1,0.2-0.2,0.3c-0.1,0.1-0.2,0.2-0.4,0.2c-0.1,0-0.2-0.1-0.3-0.2c-0.1-0.1-0.2-0.2-0.2-0.3c0-0.1,0-0.2,0.1-0.3
		c0.1-0.1,0.2-0.2,0.3-0.2c0.1,0,0.3,0,0.4,0.1C18.9,5.2,18.9,5.3,18.9,5.4z"/>
	<path d="M27.1,9.7l-1,0c-0.2,0-0.4,0-0.6,0c-0.2,0-0.4,0-0.4,0V9.4c0.2,0,0.3,0,0.3-0.1c0.1-0.1,0.2-0.3,0.2-0.6V6.4
		c-0.1,0.2-0.1,0.4-0.2,0.6c-0.1,0.4-0.3,0.8-0.4,1.3c-0.2,0.6-0.3,1-0.4,1.2c0,0-0.1,0.1-0.3,0.1c-0.1,0-0.2,0-0.3,0
		c-0.1-0.3-0.2-0.5-0.3-0.8c-0.3-0.7-0.5-1.2-0.6-1.5c-0.2-0.6-0.4-0.8-0.4-0.9l0,2.7c0,0.1,0,0.2,0.1,0.2c0.1,0,0.2,0.1,0.4,0.1
		h0.2v0.2l-0.9,0c-0.2,0-0.3,0-0.5,0s-0.3,0-0.5,0V9.4c0.2,0,0.3,0,0.4-0.1c0.1-0.1,0.2-0.2,0.2-0.3l0-2.9c0-0.2-0.2-0.3-0.7-0.3
		V5.6l0.9,0l1,0c0.1,0.2,0.2,0.5,0.2,0.7c0.2,0.5,0.3,1,0.5,1.4c0.2,0.5,0.3,0.8,0.3,0.8c0.1-0.1,0.2-0.4,0.3-0.9
		c0.1-0.4,0.3-0.9,0.4-1.3c0.1-0.2,0.1-0.5,0.2-0.7l0.8,0l1,0v0.2c0,0-0.1,0-0.1,0c-0.1,0-0.3,0-0.4,0.1c-0.1,0.1-0.2,0.2-0.2,0.3
		l0,2.9c0,0.1,0.1,0.2,0.2,0.2c0.1,0.1,0.3,0.1,0.4,0.1V9.7z"/>
	<path d="M30.3,8.2l-1.8,0.2c0,0.3,0,0.5,0.1,0.6c0.1,0.2,0.4,0.3,0.7,0.3c0.2,0,0.4,0,0.6-0.1c0,0,0.1-0.1,0.3-0.1v0.3
		c-0.2,0.1-0.3,0.1-0.4,0.2c-0.3,0.1-0.6,0.2-0.9,0.2c-0.5,0-0.8-0.1-1-0.2c-0.3-0.2-0.4-0.6-0.4-1.3c0-0.6,0.1-1,0.4-1.2
		c0.2-0.2,0.6-0.3,1.1-0.3c0.6,0,0.9,0.1,1.1,0.4C30.2,7.3,30.3,7.6,30.3,8.2z M29.4,8c0-0.4,0-0.6-0.1-0.8C29.3,7,29.2,7,29,7
		c-0.2,0-0.4,0.1-0.5,0.3c-0.1,0.2-0.1,0.4-0.1,0.7v0.1c0.1,0,0.3,0,0.6-0.1C29.1,8,29.2,8,29.4,8z"/>
	<path d="M34.3,9.5l-1.1,0.2L33,9.2c-0.1,0.1-0.2,0.2-0.3,0.3c-0.1,0.1-0.3,0.1-0.4,0.1c-0.4,0-0.7-0.1-0.9-0.4
		c-0.3-0.3-0.4-0.7-0.4-1.2c0-0.5,0.1-0.9,0.4-1.1c0.2-0.2,0.7-0.3,1.3-0.3H33V5.3c0-0.1,0-0.1-0.1-0.2C32.8,5,32.7,5,32.6,5l-0.3,0
		V4.8c0.3,0,0.5-0.1,0.6-0.1c0.4,0,0.7-0.1,0.9-0.1V9c0,0.2,0.1,0.3,0.4,0.3l0.1,0V9.5z M33,8.6V7.1c0,0,0-0.1-0.1-0.1
		c-0.1,0-0.2-0.1-0.3-0.1c-0.2,0-0.4,0.1-0.5,0.2c-0.2,0.2-0.3,0.5-0.3,0.9c0,0.4,0.1,0.7,0.2,0.9c0.1,0.2,0.3,0.3,0.5,0.3
		c0.1,0,0.3-0.1,0.3-0.2C32.9,9,33,8.8,33,8.6z"/>
	<path d="M36.4,9.7l-0.8,0l-1,0V9.4c0.1,0,0.2,0,0.2,0c0.2,0,0.2-0.1,0.2-0.2V7.5c0-0.1,0-0.2-0.1-0.3s-0.2-0.1-0.4-0.1h-0.1V6.9
		c0.2,0,0.5,0,0.9-0.1c0.4-0.1,0.6-0.1,0.6-0.1v2.5c0,0.1,0.1,0.2,0.2,0.2c0,0,0.1,0,0.2,0V9.7z M35.9,5.4c0,0.1-0.1,0.2-0.2,0.3
		c-0.1,0.1-0.2,0.2-0.4,0.2c-0.1,0-0.2-0.1-0.3-0.2c-0.1-0.1-0.2-0.2-0.2-0.3c0-0.1,0-0.2,0.1-0.3c0.1-0.1,0.2-0.2,0.3-0.2
		c0.1,0,0.3,0,0.4,0.1C35.9,5.2,35.9,5.3,35.9,5.4z"/>
	<path d="M39.8,9.5l-1.1,0.2l-0.2-0.4c0,0.1-0.2,0.2-0.4,0.3c-0.2,0.1-0.4,0.1-0.5,0.1c-0.3,0-0.5-0.1-0.6-0.3
		c-0.1-0.1-0.1-0.3-0.1-0.6c0-0.3,0.1-0.5,0.3-0.6C37.3,8.1,37.7,8,38.2,8h0.3V7.4c0-0.2,0-0.3-0.1-0.4c-0.1-0.1-0.1-0.1-0.2-0.1
		c-0.2,0-0.3,0-0.3,0.1c-0.1,0.1-0.1,0.3-0.1,0.5c0,0,0,0.1-0.1,0.1c-0.1,0-0.2,0-0.3,0H37V7.4c0-0.2,0.1-0.4,0.3-0.5
		c0.2-0.1,0.5-0.2,0.9-0.2c0.5,0,0.8,0,0.9,0.1c0.2,0.1,0.3,0.3,0.3,0.7v1.3c0,0.2,0,0.3,0.1,0.4c0.1,0.1,0.1,0.1,0.3,0.1l0.1,0V9.5
		z M38.5,8.8V8.3h-0.2c-0.4,0-0.6,0.2-0.6,0.5c0,0.1,0,0.3,0.1,0.3c0.1,0.1,0.2,0.2,0.3,0.2c0.1,0,0.3,0,0.3-0.1
		C38.4,9.1,38.5,8.9,38.5,8.8z"/>
</g>
<path class="st0" d="M51.3,9.9l-2.8-1.1L49.1,8L51.3,9.9l-1.9-2.3l1.9-2.3l-2.1,1.9l-0.7-0.9l2.8-1.1L49,5.9l3.3-2.3l0,0l-4.3,2
	l-1.4-3.9l0.9,4.4l-0.5,0.1l-0.4-4.5V1.8v0l0,0v0v0.1l-1.4,3.8l-4.2-2l0,0l3.3,2.3l-2.3-0.5l2.8,1.1l-0.7,0.8l-2.2-1.9l1.9,2.3
	l-1.9,2.3L44.1,8l0.7,0.9l-2.8,1.1l2.2-0.5l-3.3,2.3l0,0l4.3-2l1.4,3.9l-0.9-4.4L46.2,9l0.4,4.5v0.1v0l0,0v0v-0.1L48,9.6l4.2,2l0,0
	L49,9.4L51.3,9.9z M46.6,2l-0.3,4.4l-0.7-0.2L46.6,2z M45.5,8.5l-1.1-0.9l0.9-0.9l1.2,0.5l1.1-0.4l1.1,0.9l-0.9,0.9l-1.2-0.5
	L45.5,8.5z M46.6,13.4L46.9,9l0.7,0.2L46.6,13.4z"/>
</svg>
