<?xml version="1.0" encoding="utf-8"?>
<!-- Generator: Adobe Illustrator 28.0.0, SVG Export Plug-In . SVG Version: 6.00 Build 0)  -->
<svg version="1.1" id="Layer_1" xmlns="http://www.w3.org/2000/svg" xmlns:xlink="http://www.w3.org/1999/xlink" x="0px" y="0px"
	 viewBox="0 0 243.8 59.9" style="enable-background:new 0 0 243.8 59.9;" xml:space="preserve">
<style type="text/css">
	.st0{fill:#010101;}
</style>
<path class="st0" d="M199.6,12.7l-1-0.4l0.2-0.3L199.6,12.7l-0.7-0.8l0.7-0.8l-0.8,0.7l-0.3-0.3l1-0.4l-0.8,0.2l1.2-0.8l0,0
	l-1.5,0.7l-0.5-1.4l0.3,1.6l-0.2,0l-0.1-1.6v0v0l0,0v0v0l-0.5,1.4l-1.5-0.7l0,0l1.2,0.8l-0.8-0.2l1,0.4l-0.2,0.3l-0.8-0.7l0.7,0.8
	l-0.7,0.8L197,12l0.3,0.3l-1,0.4l0.8-0.2l-1.2,0.8l0,0l1.5-0.7l0.5,1.4l-0.3-1.6l0.2,0l0.1,1.6v0v0l0,0v0v0l0.5-1.4l1.5,0.7l0,0
	l-1.2-0.8L199.6,12.7z M197.9,9.8l-0.1,1.6l-0.2-0.1L197.9,9.8z M197.5,12.2l-0.4-0.3l0.3-0.3l0.4,0.2l0.4-0.1l0.4,0.3l-0.3,0.3
	l-0.4-0.2L197.5,12.2z M197.9,13.9l0.1-1.6l0.2,0.1L197.9,13.9z"/>
<path class="st0" d="M203.6,12.7l-1-0.4l0.2-0.3L203.6,12.7l-0.7-0.8l0.7-0.8l-0.8,0.7l-0.3-0.3l1-0.4l-0.8,0.2l1.2-0.8l0,0
	l-1.5,0.7l-0.5-1.4l0.3,1.6l-0.2,0l-0.1-1.6v0v0l0,0v0v0l-0.5,1.4l-1.5-0.7l0,0l1.2,0.8l-0.8-0.2l1,0.4l-0.2,0.3l-0.8-0.7l0.7,0.8
	l-0.7,0.8L201,12l0.3,0.3l-1,0.4l0.8-0.2l-1.2,0.8l0,0l1.5-0.7l0.5,1.4l-0.3-1.6l0.2,0l0.1,1.6v0v0l0,0v0v0l0.5-1.4l1.5,0.7l0,0
	l-1.2-0.8L203.6,12.7z M201.9,9.8l-0.1,1.6l-0.2-0.1L201.9,9.8z M201.5,12.2l-0.4-0.3l0.3-0.3l0.4,0.2l0.4-0.1l0.4,0.3l-0.3,0.3
	l-0.4-0.2L201.5,12.2z M201.9,13.9l0.1-1.6l0.2,0.1L201.9,13.9z"/>
<path class="st0" d="M207.5,12.7l-1-0.4l0.2-0.3L207.5,12.7l-0.7-0.8l0.7-0.8l-0.8,0.7l-0.3-0.3l1-0.4l-0.8,0.2l1.2-0.8l0,0
	l-1.5,0.7l-0.5-1.4l0.3,1.6l-0.2,0l-0.1-1.6v0v0l0,0v0v0l-0.5,1.4l-1.5-0.7l0,0l1.2,0.8l-0.8-0.2l1,0.4l-0.2,0.3l-0.8-0.7l0.7,0.8
	l-0.7,0.8l0.8-0.7l0.3,0.3l-1,0.4l0.8-0.2l-1.2,0.8l0,0l1.5-0.7l0.5,1.4l-0.3-1.6l0.2,0l0.1,1.6v0v0l0,0v0v0l0.5-1.4l1.5,0.7l0,0
	l-1.2-0.8L207.5,12.7z M205.8,9.8l-0.1,1.6l-0.2-0.1L205.8,9.8z M205.4,12.2l-0.4-0.3l0.3-0.3l0.4,0.2l0.4-0.1l0.4,0.3l-0.3,0.3
	l-0.4-0.2L205.4,12.2z M205.8,13.9l0.1-1.6l0.2,0.1L205.8,13.9z"/>
<g>
	<path d="M9.5,14H8.5H7.6H6.6H5.7V13H4.7v-0.9h0.9v-0.9v-0.9V9.2V8.3V7.4V6.4H4.7V5.5h0.9V4.5h0.9V3.6h0.9h0.9h0.9h0.9v0.9h0.9v0.9
		h0.9v0.9h-0.9v0.9h-0.9v0.9h0.9v0.9h0.9v0.9v0.9v0.9h-0.9V13h-0.9V14H9.5z M9.5,13h0.9v-0.9v-0.9v-0.9H9.5V9.2H8.5V8.3h0.9V7.4h0.9
		V6.4H9.5V5.5H8.5V4.5H7.6v0.9v0.9v0.9v0.9v0.9v0.9v0.9v0.9V13h0.9H9.5z"/>
	<path d="M17,14h-0.9h-0.9V13h-0.9v-0.9h-0.9v-0.9v-0.9V9.2V8.3h0.9V7.4h0.9v0.9v0.9v0.9v0.9h0.9v0.9H17V13H18V14H17z M18,13v-0.9
		v-0.9v-0.9V9.2H17V8.3h-0.9V7.4h-0.9V6.4h0.9H17H18v0.9h0.9v0.9h0.9v0.9v0.9v0.9v0.9h-0.9V13H18z"/>
	<path d="M22.7,14h-0.9V13v-0.9v-0.9v-0.9h-0.9V9.2h0.9V8.3h0.9V7.4h0.9v0.9v0.9v0.9v0.9v0.9h0.9V13h-0.9V14H22.7z M21.8,6.4V5.5
		V4.5h0.9V3.6h0.9v0.9v0.9h-0.9v0.9H21.8z"/>
	<path d="M27.5,14h-0.9V13v-0.9v-0.9v-0.9V9.2V8.3V7.4V6.4h-0.9V5.5h0.9V4.5h0.9V3.6h0.9v0.9v0.9v0.9v0.9v0.9v0.9v0.9v0.9v0.9h0.9
		V13h-0.9V14H27.5z"/>
	<path d="M35,13H36V14H35h-0.9h-0.9h-0.9h-0.9V13h-0.9v-0.9v-0.9v-0.9V9.2V8.3h0.9V7.4h0.9v0.9v0.9v0.9v0.9h0.9v0.9V13h0.9H35z
		 M35,9.2V8.3h-0.9V7.4h-0.9h-0.9V6.4h0.9h0.9H35H36v0.9h0.9v0.9H36v0.9H35z M33.1,11.1v-0.9h0.9v0.9H33.1z M34.1,10.2V9.2H35v0.9
		H34.1z M36,13v-0.9h0.9V13H36z"/>
	<path d="M39.8,14h-0.9V13v-0.9v-0.9v-0.9V9.2h-0.9V8.3h0.9V7.4h0.9V6.4h0.9v0.9v0.9h0.9v0.9h-0.9v0.9v0.9v0.9h0.9V13h-0.9V14H39.8z
		 M43.5,9.2h-0.9V8.3h-0.9V7.4h0.9V6.4h0.9v0.9h0.9v0.9v0.9H43.5z"/>
	<path d="M56.8,14h-0.9V13v-0.9v-0.9v-0.9V9.2h-0.9H54V8.3h0.9V7.4h0.9V6.4V5.5h-0.9V4.5H54v0.9H53v0.9v0.9v0.9v0.9H54v0.9H53v0.9
		v0.9H54V13H53V14h-0.9h-0.9V13v-0.9v-0.9v-0.9V9.2V8.3V7.4V6.4h-0.9V5.5h0.9V4.5h0.9V3.6H53v0.9H54V3.6h0.9h0.9h0.9v0.9h0.9v0.9
		v0.9h-0.9v0.9v0.9h0.9v0.9v0.9v0.9v0.9h0.9V13h-0.9V14H56.8z"/>
	<path d="M63.4,14h-0.9h-0.9V13h-0.9v-0.9h-0.9v-0.9v-0.9V9.2V8.3h0.9V7.4h0.9v0.9v0.9v0.9v0.9h0.9v0.9h0.9V13h0.9V14H63.4z
		 M64.4,13v-0.9v-0.9v-0.9V9.2h-0.9V8.3h-0.9V7.4h-0.9V6.4h0.9h0.9h0.9v0.9h0.9v0.9h0.9v0.9v0.9v0.9v0.9h-0.9V13H64.4z"/>
	<path d="M71,14H70h-0.9V13h-0.9v-0.9h-0.9v-0.9v-0.9V9.2V8.3h0.9V7.4h0.9v0.9v0.9v0.9v0.9H70v0.9H71V13h0.9V14H71z M71.9,13v-0.9
		v-0.9v-0.9V9.2H71V8.3H70V7.4h-0.9V6.4H70H71h0.9v0.9h0.9v0.9h0.9v0.9v0.9v0.9v0.9h-0.9V13H71.9z"/>
	<path d="M84.2,14h-0.9V13v-0.9v-0.9v-0.9V9.2V8.3h-0.9v0.9h-0.9v0.9v0.9v0.9V13V14h-0.9h-0.9V13v-0.9v-0.9v-0.9V9.2V8.3h-0.9v0.9
		h-0.9v0.9v0.9v0.9V13V14h-0.9h-0.9V13v-0.9v-0.9v-0.9V9.2h-0.9V8.3h0.9V7.4h0.9V6.4h0.9v0.9v0.9h0.9V7.4h0.9V6.4h0.9h0.9v0.9v0.9
		h0.9V7.4h0.9V6.4h0.9h0.9v0.9v0.9v0.9v0.9v0.9v0.9h0.9V13h-0.9V14H84.2z"/>
	<path d="M94.6,16.8h-0.9v-0.9h-0.9v-0.9h-0.9V14V13v-0.9v-0.9v-0.9V9.2V8.3V7.4V6.4h0.9V5.5h0.9V4.5h0.9V3.6h0.9h0.9v0.9h0.9v0.9
		v0.9h-0.9h-0.9V5.5h-0.9v0.9h-0.9v0.9v0.9v0.9v0.9v0.9v0.9V13V14h0.9v0.9h0.9h0.9v0.9h-0.9v0.9H94.6z"/>
	<path d="M98.4,6.4V5.5h0.9v0.9H98.4z M104.1,14h-0.9h-0.9V13h-0.9v-0.9v-0.9v-0.9V9.2V8.3V7.4V6.4V5.5h0.9V4.5h-0.9h-0.9v0.9h-0.9
		V4.5h0.9V3.6h0.9h0.9h0.9h0.9h0.9v0.9h0.9V3.6h0.9v0.9v0.9v0.9H106h-0.9V5.5h-0.9V4.5h-0.9v0.9v0.9v0.9v0.9v0.9v0.9v0.9v0.9h0.9V13
		h0.9V14H104.1z M105.1,13v-0.9h0.9V13H105.1z M106,12.1v-0.9h0.9v0.9H106z"/>
	<path d="M117.4,14h-0.9V13v-0.9v-0.9v-0.9V9.2V8.3V7.4V6.4V5.5h-0.9v0.9h-0.9v0.9v0.9v0.9v0.9v0.9v0.9h0.9V13h-0.9V14h-0.9h-0.9V13
		v-0.9v-0.9v-0.9V9.2V8.3V7.4V6.4V5.5h-0.9v0.9h-0.9v0.9v0.9v0.9v0.9v0.9v0.9h0.9V13h-0.9V14h-0.9h-0.9V13v-0.9v-0.9v-0.9V9.2V8.3
		V7.4V6.4h-0.9V5.5h0.9V4.5h0.9V3.6h0.9v0.9v0.9h0.9V4.5h0.9V3.6h0.9h0.9v0.9v0.9h0.9V4.5h0.9V3.6h0.9h0.9v0.9v0.9v0.9v0.9v0.9v0.9
		v0.9v0.9v0.9h0.9V13h-0.9V14H117.4z"/>
	<path d="M121.1,6.4V5.5h0.9v0.9H121.1z M124.9,14.9V14V13v-0.9v-0.9v-0.9V9.2V8.3V7.4H124V6.4H123V5.5h-0.9V4.5h0.9V3.6h0.9v0.9
		h0.9v0.9h0.9v0.9h0.9v0.9v0.9v0.9v0.9v0.9v0.9V13V14h-0.9v0.9H124.9z M123,16.8v-0.9h0.9v0.9H123z M124,15.9v-0.9h0.9v0.9H124z"/>
	<path d="M132.5,6.4V5.5h0.9v0.9H132.5z M138.2,14h-0.9h-0.9V13h-0.9v-0.9v-0.9v-0.9V9.2V8.3V7.4V6.4V5.5h0.9V4.5h-0.9h-0.9v0.9
		h-0.9V4.5h0.9V3.6h0.9h0.9h0.9h0.9h0.9v0.9h0.9V3.6h0.9v0.9v0.9v0.9h-0.9h-0.9V5.5h-0.9V4.5h-0.9v0.9v0.9v0.9v0.9v0.9v0.9v0.9v0.9
		h0.9V13h0.9V14H138.2z M139.1,13v-0.9h0.9V13H139.1z M140.1,12.1v-0.9h0.9v0.9H140.1z"/>
	<path d="M146.7,13h0.9V14h-0.9h-0.9h-0.9h-0.9h-0.9V13H142v-0.9v-0.9v-0.9V9.2V8.3h0.9V7.4h0.9v0.9v0.9v0.9v0.9h0.9v0.9V13h0.9
		H146.7z M146.7,9.2V8.3h-0.9V7.4h-0.9h-0.9V6.4h0.9h0.9h0.9h0.9v0.9h0.9v0.9h-0.9v0.9H146.7z M144.8,11.1v-0.9h0.9v0.9H144.8z
		 M145.8,10.2V9.2h0.9v0.9H145.8z M147.6,13v-0.9h0.9V13H147.6z"/>
	<path d="M151.4,14h-0.9V13v-0.9v-0.9v-0.9V9.2h-0.9V8.3h0.9V7.4h0.9V6.4h0.9v0.9v0.9h0.9v0.9h-0.9v0.9v0.9v0.9h0.9V13h-0.9V14
		H151.4z M155.2,9.2h-0.9V8.3h-0.9V7.4h0.9V6.4h0.9v0.9h0.9v0.9v0.9H155.2z"/>
	<path d="M166.6,14h-0.9V13v-0.9v-0.9v-0.9V9.2V8.3h-0.9v0.9h-0.9v0.9v0.9v0.9V13V14h-0.9h-0.9V13v-0.9v-0.9v-0.9V9.2V8.3h-0.9v0.9
		h-0.9v0.9v0.9v0.9V13V14H159h-0.9V13v-0.9v-0.9v-0.9V9.2h-0.9V8.3h0.9V7.4h0.9V6.4h0.9v0.9v0.9h0.9V7.4h0.9V6.4h0.9h0.9v0.9v0.9
		h0.9V7.4h0.9V6.4h0.9h0.9v0.9v0.9v0.9v0.9v0.9v0.9h0.9V13h-0.9V14H166.6z"/>
	<path d="M171.3,14h-0.9V13v-0.9v-0.9v-0.9h-0.9V9.2h0.9V8.3h0.9V7.4h0.9v0.9v0.9v0.9v0.9v0.9h0.9V13h-0.9V14H171.3z M170.4,6.4V5.5
		V4.5h0.9V3.6h0.9v0.9v0.9h-0.9v0.9H170.4z"/>
	<path d="M180.8,14h-0.9V13v-0.9v-0.9v-0.9V9.2V8.3V7.4h-0.9v0.9h-0.9v0.9H177v0.9v0.9v0.9h0.9V13H177V14H176h-0.9V13v-0.9v-0.9
		v-0.9V9.2h-0.9V8.3h0.9V7.4h0.9V6.4h0.9v0.9v0.9h0.9V7.4h0.9V6.4h0.9h0.9h0.9v0.9v0.9v0.9v0.9v0.9v0.9h0.9V13h-0.9V14H180.8z"/>
	<path d="M188.3,14h-0.9h-0.9h-0.9h-0.9V13h-0.9v-0.9v-0.9h0.9v-0.9h0.9V9.2h0.9h0.9V8.3h-0.9h-0.9h-0.9V7.4h0.9V6.4h0.9h0.9h0.9
		v0.9h0.9v0.9v0.9v0.9v0.9v0.9h0.9V13h-0.9V14H188.3z M183.6,9.2V8.3h0.9v0.9H183.6z M186.4,13h0.9v-0.9v-0.9v-0.9h-0.9h-0.9v0.9
		v0.9V13H186.4z"/>
	<path d="M193.1,14h-0.9V13v-0.9v-0.9v-0.9V9.2V8.3V7.4V6.4h-0.9V5.5h0.9V4.5h0.9V3.6h0.9v0.9v0.9v0.9v0.9v0.9v0.9v0.9v0.9v0.9h0.9
		V13H194V14H193.1z"/>
</g>
</svg>
