<?xml version="1.0" encoding="utf-8"?>
<!-- Generator: Adobe Illustrator 28.0.0, SVG Export Plug-In . SVG Version: 6.00 Build 0)  -->
<svg version="1.1" id="Layer_1" xmlns="http://www.w3.org/2000/svg" xmlns:xlink="http://www.w3.org/1999/xlink" x="0px" y="0px"
	 viewBox="0 0 243.8 59.9" style="enable-background:new 0 0 243.8 59.9;" xml:space="preserve">
<style type="text/css">
	.st0{fill:#010101;}
</style>
<g>
	<path d="M24.2,39.8L20,39.7h-4.8v-1c0.5,0,0.9-0.1,1.1-0.2c0.3-0.1,0.4-0.4,0.4-0.7c0-0.3-0.2-1.1-0.7-2.4
		c-0.1-0.4-0.4-1.1-0.7-1.9H9.6c-0.3,0.8-0.5,1.3-0.6,1.7c-0.4,1.3-0.7,2-0.7,2.2c0,0.5,0.3,0.9,1,1.1c0.2,0.1,0.6,0.1,1.1,0.2v1.1
		l-4.2-0.1H2.3v-1c0.4,0,0.6,0,0.8,0c1.2-0.1,2-0.5,2.2-1.1c0.8-1.8,1.7-4.1,2.8-6.9c1.2-3.2,2.1-5.4,2.5-6.5c0.8-2,1.3-3.1,1.5-3.3
		l2.9-1.3l6.4,17.9c0.2,0.6,0.7,0.9,1.5,1.1c0.3,0,0.6,0.1,1.2,0.1V39.8z M14.7,31.8c0-0.4-0.3-1.2-0.7-2.6c-0.5-1.5-1-3-1.4-4.6
		c-0.3,0.6-0.7,2-1.5,4.1c-0.2,0.7-0.5,1.7-1,3H14.7z"/>
	<path d="M33.1,39.8L29,39.7h-4.9v-1c0.7,0,1.3-0.1,1.7-0.3s0.6-0.5,0.6-1V18.6c0-0.5-0.2-0.9-0.7-1.1s-1-0.4-1.6-0.4l-0.9,0.1v-1.1
		l7.5-0.9v22.3c0,0.4,0.2,0.8,0.6,0.9c0.4,0.2,1,0.3,1.7,0.3V39.8z M42.9,39.8l-6.3,0.1c-1.2-1.5-2.1-2.7-2.7-3.5
		C32,34.1,31,32.8,31,32.7c1.3-1.5,2.2-2.7,2.7-3.6c0.6-1.1,0.9-2.3,0.9-3.6h6.9v0.9c-1.1,0-1.9,0.1-2.3,0.2
		c-0.4,0.1-0.9,0.4-1.4,0.9L34.3,31l6,7c0.3,0.4,0.6,0.6,1,0.6c0.3,0.1,0.8,0.1,1.6,0.1V39.8z"/>
	<path d="M57.8,39l-5.4,0.8l-1-2.2c-0.2,0.7-0.9,1.2-1.9,1.6c-0.9,0.4-1.8,0.5-2.6,0.5c-1.5,0-2.5-0.4-3-1.2
		c-0.4-0.6-0.6-1.7-0.6-3.1c0-1.5,0.5-2.5,1.4-3.1c0.9-0.5,2.7-0.8,5.2-0.8h1.5v-2.8c0-0.9-0.2-1.6-0.6-2c-0.3-0.3-0.7-0.4-1.2-0.4
		c-0.7,0-1.3,0.2-1.6,0.7c-0.3,0.5-0.5,1.3-0.5,2.6c0,0.2-0.2,0.3-0.6,0.4c-0.4,0.1-0.9,0.1-1.6,0.1h-1.4v-1.8
		c0-1.2,0.4-2.1,1.2-2.6c0.8-0.5,2.3-0.8,4.5-0.8c2.2,0,3.7,0.2,4.5,0.6c1,0.5,1.6,1.6,1.6,3.2v6.5c0,1,0.2,1.7,0.5,2
		c0.3,0.3,0.7,0.4,1.3,0.4l0.5,0V39z M51.3,35.5V33h-1.2C48,33,47,33.7,47,35.2c0,0.7,0.1,1.2,0.3,1.6c0.3,0.6,0.7,0.8,1.4,0.8
		c0.7,0,1.2-0.2,1.7-0.5C50.9,36.9,51.3,36.3,51.3,35.5z"/>
	<path d="M71.2,27.1c0,0.4-0.1,1-0.4,1.8c-0.3,0.8-0.5,1.1-0.7,1.1c-0.1,0-0.6-0.4-1.5-1.3c-0.5-0.4-0.9-0.6-1.4-0.6
		c-0.7,0-1.2,0.4-1.6,1.2C65.2,30.1,65,31,65,31.9v5.5c0,0.4,0.2,0.7,0.7,0.9c0.4,0.2,1,0.3,1.8,0.3v1.1L63,39.7h-4.3v-1
		c0.7,0,1.2-0.1,1.5-0.3c0.3-0.2,0.5-0.5,0.5-0.8v-8.8c0-0.4-0.2-0.7-0.5-1c-0.3-0.3-0.7-0.4-1.3-0.4c-0.2,0-0.5,0-0.9,0.1
		c0,0-0.1,0-0.2,0.1v-1.2c1.2-0.1,2.7-0.3,4.5-0.7c0.9-0.2,1.8-0.3,2.8-0.5l0.2,2.4c0.4-0.5,1-1,1.7-1.5c0.8-0.5,1.5-0.8,2.1-0.8
		c0.4,0,0.8,0.2,1.4,0.6C70.9,26.2,71.2,26.6,71.2,27.1z"/>
	<path d="M80.9,39.7l-4.1-0.1L72,39.7v-1.1c0.5,0,0.9-0.1,1.1-0.1c0.8-0.2,1.2-0.6,1.2-1.2V29c0-0.6-0.2-1.1-0.5-1.5
		c-0.4-0.3-0.9-0.5-1.7-0.5h-0.7v-1c1.1,0,2.5-0.1,4.3-0.4c1.8-0.3,2.8-0.4,3.1-0.5v12.3c0,0.5,0.4,0.8,1.1,1c0.2,0,0.6,0.1,1.1,0.1
		V39.7z M78.7,18.9c0,0.6-0.2,1.1-0.7,1.7c-0.5,0.5-1.1,0.8-1.7,0.8c-0.5,0-1.1-0.2-1.6-0.7c-0.6-0.5-0.8-1-0.8-1.6
		c0-0.6,0.2-1.1,0.7-1.7c0.5-0.5,1-0.8,1.6-0.8c0.7,0,1.3,0.2,1.8,0.7C78.4,17.8,78.7,18.3,78.7,18.9z"/>
	<path d="M118.8,39.8l-4.9-0.1c-0.9,0-2,0-3.1,0s-1.8,0-1.8,0v-1c0.8,0,1.3-0.2,1.7-0.5c0.5-0.5,0.8-1.4,0.8-2.8V23.9
		c-0.4,1-0.7,2-1,2.9c-0.6,1.8-1.4,3.9-2.2,6.4c-1,2.9-1.7,5-2,6.1c0,0.1-0.6,0.3-1.5,0.4c-0.3,0-0.8,0.1-1.5,0.1
		c-0.5-1.3-1-2.7-1.5-4c-1.2-3.3-2.2-5.8-2.9-7.5c-1.1-2.7-1.8-4.1-1.9-4.3l-0.1,13.3c0,0.5,0.2,0.8,0.7,1.1s1.1,0.4,1.9,0.4h0.8v1
		l-4.5-0.1c-0.8,0-1.7,0-2.5,0s-1.6,0-2.3,0v-1c0.9,0,1.6-0.1,2.1-0.3c0.7-0.3,1-0.8,1-1.6l0.2-14.2c0-1.1-1.1-1.7-3.3-1.7v-1.1
		l4.5,0.1l4.9-0.1c0.4,1.2,0.8,2.4,1.2,3.6c0.8,2.5,1.6,4.8,2.3,6.8c0.8,2.5,1.3,3.8,1.5,3.9c0.3-0.4,0.9-1.9,1.7-4.4
		c0.7-2.1,1.4-4.3,2.1-6.6c0.3-1.1,0.7-2.3,1-3.4l3.8,0.1l5-0.1v1.2c-0.1,0-0.3-0.1-0.5-0.1c-0.7,0-1.3,0.2-1.9,0.5
		c-0.6,0.3-0.8,0.8-0.8,1.4l0.2,14.2c0,0.5,0.3,0.9,1,1.2c0.6,0.3,1.4,0.4,2.2,0.4V39.8z"/>
	<path d="M134.2,32.5l-8.9,0.9c0,1.3,0.2,2.3,0.6,2.9c0.6,1,1.8,1.6,3.6,1.6c1.1,0,2-0.1,2.7-0.3c0.2,0,0.7-0.3,1.6-0.7v1.5
		c-0.8,0.3-1.4,0.6-1.9,0.7c-1.5,0.5-2.9,0.7-4.2,0.7c-2.3,0-3.9-0.4-4.9-1.2c-1.4-1.1-2.1-3.2-2.1-6.3c0-2.7,0.6-4.7,1.9-5.8
		c1.1-1,2.9-1.5,5.4-1.5c2.8,0,4.7,0.7,5.5,2.2C134,28.2,134.2,29.9,134.2,32.5z M130,31.5c0-1.8-0.1-3.1-0.4-3.8
		c-0.2-0.8-0.7-1.1-1.5-1.1c-1.1,0-1.9,0.5-2.4,1.6c-0.3,0.8-0.5,1.9-0.5,3.4v0.7c0.4,0,1.3-0.1,2.7-0.3
		C128.5,31.7,129.1,31.6,130,31.5z"/>
	<path d="M154,39l-5.4,0.8l-1-2.1c-0.3,0.6-0.9,1.1-1.7,1.5c-0.7,0.4-1.3,0.6-2,0.6c-2,0-3.5-0.6-4.6-1.7c-1.2-1.3-1.9-3.3-1.9-6
		c0-2.6,0.6-4.5,1.8-5.5c1.2-1,3.3-1.5,6.2-1.5h2v-7c0-0.4-0.2-0.7-0.5-0.9c-0.4-0.2-0.8-0.3-1.4-0.3l-1.2,0.1V16
		c1.3-0.1,2.4-0.2,3.1-0.3c2-0.2,3.4-0.4,4.4-0.6v21.4c0,0.9,0.6,1.4,1.8,1.4l0.5,0V39z M147.4,34.7v-7.5c0-0.2-0.2-0.4-0.5-0.6
		c-0.3-0.2-0.8-0.3-1.3-0.3c-1.1,0-1.9,0.3-2.6,1c-0.8,0.9-1.2,2.3-1.2,4.2c0,1.8,0.3,3.2,1,4.3c0.7,1.1,1.5,1.7,2.3,1.7
		c0.7,0,1.3-0.3,1.7-0.8C147.2,36.3,147.4,35.6,147.4,34.7z"/>
	<path d="M164.3,39.7l-4.1-0.1l-4.7,0.1v-1.1c0.5,0,0.9-0.1,1.1-0.1c0.8-0.2,1.2-0.6,1.2-1.2V29c0-0.6-0.2-1.1-0.5-1.5
		s-0.9-0.5-1.7-0.5h-0.7v-1c1.1,0,2.5-0.1,4.3-0.4c1.8-0.3,2.8-0.4,3.1-0.5v12.3c0,0.5,0.4,0.8,1.1,1c0.2,0,0.6,0.1,1.1,0.1V39.7z
		 M162,18.9c0,0.6-0.2,1.1-0.7,1.7c-0.5,0.5-1.1,0.8-1.7,0.8c-0.5,0-1.1-0.2-1.6-0.7c-0.6-0.5-0.8-1-0.8-1.6c0-0.6,0.2-1.1,0.7-1.7
		c0.5-0.5,1-0.8,1.6-0.8c0.7,0,1.3,0.2,1.8,0.7C161.8,17.8,162,18.3,162,18.9z"/>
	<path d="M181.1,39l-5.4,0.8l-1-2.2c-0.2,0.7-0.9,1.2-1.9,1.6c-0.9,0.4-1.8,0.5-2.6,0.5c-1.5,0-2.5-0.4-3-1.2
		c-0.4-0.6-0.6-1.7-0.6-3.1c0-1.5,0.5-2.5,1.4-3.1c0.9-0.5,2.7-0.8,5.2-0.8h1.5v-2.8c0-0.9-0.2-1.6-0.6-2c-0.3-0.3-0.7-0.4-1.2-0.4
		c-0.7,0-1.3,0.2-1.6,0.7c-0.3,0.5-0.5,1.3-0.5,2.6c0,0.2-0.2,0.3-0.6,0.4c-0.4,0.1-0.9,0.1-1.6,0.1H167v-1.8c0-1.2,0.4-2.1,1.2-2.6
		c0.8-0.5,2.3-0.8,4.5-0.8c2.2,0,3.7,0.2,4.5,0.6c1,0.5,1.6,1.6,1.6,3.2v6.5c0,1,0.2,1.7,0.5,2c0.3,0.3,0.7,0.4,1.3,0.4l0.5,0V39z
		 M174.6,35.5V33h-1.2c-2.1,0-3.1,0.8-3.1,2.3c0,0.7,0.1,1.2,0.3,1.6c0.3,0.6,0.7,0.8,1.4,0.8c0.7,0,1.2-0.2,1.7-0.5
		C174.3,36.9,174.6,36.3,174.6,35.5z"/>
</g>
<path class="st0" d="M237.2,41l-14-5.3l3.2-4L237.2,41l-9.3-11.1l9.1-11.1l-10.5,9.5l-3.6-4.2l14-5.3l-10.9,2.4l16.2-11.1l-0.2,0.2
	l-21,9.9l-6.7-19l4.2,21.7l-2.6,0.6L214,1.6V1.2v0.2l0,0V1.2v0.4l-6.9,18.6l-20.8-9.9l-0.2-0.2l16.2,11.1l-11.1-2.4l14,5.3l-3.2,4
	l-10.7-9.3l9.3,11.1L191.3,41l10.5-9.5l3.6,4.2l-14,5.3l10.9-2.4l-16.2,11.1l0.2-0.2l21-9.9l6.7,19L209.9,37l2.6-0.6l1.8,21.9v0.4
	v-0.2l0,0v0.2v-0.4l6.9-18.6l20.8,9.9l0.2,0.2l-16.2-11.1L237.2,41z M214.2,2l-1.6,21.7l-3.2-0.8L214.2,2z M209.1,34.3l-5.3-4.7
	l4.7-4.2l5.7,2.2l5.3-2l5.3,4.7l-4.7,4.2l-5.7-2.2L209.1,34.3z M214.4,58l1.6-21.7l3.2,0.8L214.4,58z"/>
</svg>
