<?xml version="1.0" encoding="utf-8"?>
<!-- Generator: Adobe Illustrator 28.0.0, SVG Export Plug-In . SVG Version: 6.00 Build 0)  -->
<svg version="1.1" id="Layer_1" xmlns="http://www.w3.org/2000/svg" xmlns:xlink="http://www.w3.org/1999/xlink" x="0px" y="0px"
	 viewBox="0 0 56.2 14.3" style="enable-background:new 0 0 56.2 14.3;" xml:space="preserve">
<style type="text/css">
	.st0{fill:#010101;}
</style>
<g>
	<path d="M3.9,2.7l-0.1,0H3.7v0c0,0,0,0,0,0c0,0,0,0,0,0c0,0,0,0,0-0.1c0,0,0,0,0,0H3.6c0,0,0,0,0,0c0,0,0,0,0,0.1c0,0,0,0,0,0
		c0,0,0,0,0,0v0l-0.1,0H3.4v0c0,0,0,0,0,0c0,0,0,0,0.1,0c0,0,0-0.1,0.1-0.2c0-0.1,0-0.1,0.1-0.2c0,0,0-0.1,0-0.1l0.1,0L3.9,2.7
		C3.9,2.7,3.9,2.7,3.9,2.7C3.9,2.7,3.9,2.7,3.9,2.7L3.9,2.7z M3.7,2.5C3.7,2.5,3.7,2.5,3.7,2.5c0-0.1,0-0.1-0.1-0.2
		C3.6,2.4,3.6,2.4,3.7,2.5c-0.1-0.1-0.1,0-0.1,0H3.7z"/>
	<path d="M4.1,2.7L4.1,2.7l-0.2,0v0c0,0,0,0,0,0c0,0,0,0,0,0V2.2c0,0,0,0,0,0s0,0,0,0l0,0v0l0.2,0L4.1,2.7C4.1,2.7,4.1,2.7,4.1,2.7
		C4.1,2.7,4.1,2.7,4.1,2.7L4.1,2.7z M4.4,2.7l-0.2,0c0,0-0.1-0.1-0.1-0.1c0-0.1-0.1-0.1-0.1-0.1c0,0,0.1-0.1,0.1-0.1
		c0,0,0-0.1,0-0.1h0.2v0c0,0,0,0-0.1,0c0,0,0,0,0,0L4.2,2.5L4.4,2.7C4.3,2.7,4.3,2.7,4.4,2.7C4.3,2.7,4.4,2.7,4.4,2.7L4.4,2.7z"/>
	<path d="M4.7,2.7l-0.1,0l0-0.1c0,0,0,0,0,0c0,0,0,0-0.1,0c0,0-0.1,0-0.1,0c0,0,0,0,0-0.1c0,0,0-0.1,0-0.1c0,0,0.1,0,0.1,0h0V2.5
		c0,0,0,0,0,0c0,0,0,0,0,0c0,0,0,0,0,0c0,0,0,0,0,0.1c0,0,0,0,0,0c0,0,0,0,0,0h0v0c0,0,0,0,0-0.1c0,0,0.1,0,0.1,0c0.1,0,0.1,0,0.1,0
		c0,0,0,0,0,0.1L4.7,2.7C4.7,2.6,4.7,2.7,4.7,2.7C4.7,2.7,4.7,2.7,4.7,2.7L4.7,2.7L4.7,2.7z M4.6,2.6L4.6,2.6L4.6,2.6
		c-0.1-0.1-0.1,0-0.1,0C4.5,2.6,4.5,2.6,4.6,2.6C4.5,2.7,4.5,2.7,4.6,2.6C4.5,2.7,4.5,2.7,4.6,2.6C4.6,2.6,4.6,2.6,4.6,2.6z"/>
	<path d="M5.1,2.4C5.1,2.4,5,2.4,5.1,2.4C5,2.5,5,2.5,5.1,2.4C5,2.5,5,2.5,5.1,2.4C5,2.4,5,2.4,5.1,2.4c-0.1,0-0.1,0-0.1,0.1
		c0,0,0,0,0,0.1v0.1c0,0,0,0,0,0c0,0,0,0,0,0v0l-0.1,0H4.7v0c0,0,0,0,0,0c0,0,0,0,0,0V2.5c0,0,0,0,0,0c0,0,0,0,0,0c0,0,0,0,0,0
		c0,0,0,0,0,0v0c0,0,0.1,0,0.1,0c0,0,0,0,0.1,0l0,0.1c0,0,0,0,0,0C5,2.4,5,2.4,5.1,2.4C5,2.4,5,2.4,5.1,2.4C5,2.4,5.1,2.4,5.1,2.4z"
		/>
	<path d="M5.3,2.7L5.3,2.7H5.1v0c0,0,0,0,0,0c0,0,0,0,0,0V2.5c0,0,0,0,0,0c0,0,0,0,0,0h0v0c0,0,0.1,0,0.1,0c0,0,0.1,0,0.1,0L5.3,2.7
		C5.2,2.7,5.2,2.7,5.3,2.7C5.3,2.7,5.3,2.7,5.3,2.7L5.3,2.7z M5.2,2.2C5.2,2.2,5.2,2.2,5.2,2.2C5.2,2.3,5.2,2.3,5.2,2.2
		C5.2,2.3,5.1,2.3,5.2,2.2c-0.1,0-0.1,0-0.1,0c0,0,0,0,0,0C5.1,2.2,5.2,2.2,5.2,2.2C5.2,2.2,5.2,2.2,5.2,2.2
		C5.2,2.2,5.2,2.2,5.2,2.2z"/>
	<path d="M6.2,2.7l-0.1,0c0,0,0,0-0.1,0c0,0,0,0,0,0v0c0,0,0,0,0,0c0,0,0,0,0-0.1V2.3c0,0,0,0,0,0.1c0,0,0,0.1-0.1,0.2
		c0,0.1,0,0.1,0,0.1c0,0,0,0,0,0c0,0,0,0,0,0c0,0,0-0.1,0-0.1c0-0.1-0.1-0.1-0.1-0.2c0-0.1,0-0.1,0-0.1l0,0.3c0,0,0,0,0,0
		c0,0,0,0,0,0h0v0l-0.1,0c0,0,0,0-0.1,0s0,0-0.1,0v0c0,0,0,0,0.1,0c0,0,0,0,0,0l0-0.3c0,0,0,0-0.1,0v0l0.1,0l0.1,0c0,0,0,0.1,0,0.1
		c0,0.1,0,0.1,0.1,0.2c0,0.1,0,0.1,0,0.1c0,0,0,0,0-0.1c0-0.1,0-0.1,0-0.2c0,0,0-0.1,0-0.1l0.1,0l0.1,0v0c0,0,0,0,0,0c0,0,0,0,0,0
		c0,0,0,0,0,0L6.2,2.7C6.1,2.7,6.1,2.7,6.2,2.7C6.2,2.7,6.2,2.7,6.2,2.7L6.2,2.7z"/>
	<path d="M6.6,2.5l-0.2,0c0,0,0,0.1,0,0.1c0,0,0,0,0.1,0c0,0,0,0,0.1,0c0,0,0,0,0,0v0c0,0,0,0,0,0c0,0-0.1,0-0.1,0
		c-0.1,0-0.1,0-0.1,0c0,0,0-0.1,0-0.2c0-0.1,0-0.1,0-0.1c0,0,0.1,0,0.1,0c0.1,0,0.1,0,0.1,0.1C6.6,2.4,6.6,2.5,6.6,2.5z M6.5,2.5
		C6.5,2.5,6.5,2.4,6.5,2.5c0-0.1,0-0.1,0-0.1c0,0,0,0-0.1,0c0,0,0,0,0,0.1v0C6.4,2.5,6.4,2.5,6.5,2.5C6.4,2.5,6.5,2.5,6.5,2.5z"/>
	<path d="M7.1,2.7l-0.1,0l0-0.1c0,0,0,0,0,0c0,0,0,0,0,0c0,0-0.1,0-0.1,0c0,0,0-0.1,0-0.1c0-0.1,0-0.1,0-0.1c0,0,0.1,0,0.1,0h0V2.2
		c0,0,0,0,0,0c0,0,0,0,0,0l0,0v0c0,0,0.1,0,0.1,0c0,0,0.1,0,0.1,0L7.1,2.7C7,2.7,7,2.7,7.1,2.7L7.1,2.7L7.1,2.7z M6.9,2.6V2.4
		c0,0,0,0,0,0c0,0,0,0,0,0c0,0,0,0-0.1,0c0,0,0,0.1,0,0.1c0,0,0,0.1,0,0.1C6.8,2.7,6.8,2.7,6.9,2.6C6.9,2.7,6.9,2.7,6.9,2.6
		C6.9,2.6,6.9,2.6,6.9,2.6z"/>
	<path d="M7.3,2.7L7.3,2.7H7.1v0c0,0,0,0,0,0c0,0,0,0,0,0V2.5c0,0,0,0,0,0c0,0,0,0,0,0h0v0c0,0,0.1,0,0.1,0c0,0,0.1,0,0.1,0L7.3,2.7
		C7.2,2.7,7.3,2.7,7.3,2.7C7.3,2.7,7.3,2.7,7.3,2.7L7.3,2.7z M7.2,2.2C7.2,2.2,7.2,2.2,7.2,2.2C7.2,2.3,7.2,2.3,7.2,2.2
		C7.2,2.3,7.2,2.3,7.2,2.2c-0.1,0-0.1,0-0.1,0c0,0,0,0,0,0C7.2,2.2,7.2,2.2,7.2,2.2C7.2,2.2,7.2,2.2,7.2,2.2
		C7.2,2.2,7.2,2.2,7.2,2.2z"/>
	<path d="M7.7,2.7l-0.1,0l0-0.1c0,0,0,0,0,0c0,0,0,0-0.1,0c0,0-0.1,0-0.1,0c0,0,0,0,0-0.1c0,0,0-0.1,0-0.1c0,0,0.1,0,0.1,0h0V2.5
		c0,0,0,0,0,0c0,0,0,0,0,0c0,0,0,0,0,0c0,0,0,0,0,0.1c0,0,0,0,0,0c0,0,0,0,0,0h0v0c0,0,0,0,0-0.1c0,0,0.1,0,0.1,0c0.1,0,0.1,0,0.1,0
		c0,0,0,0,0,0.1L7.7,2.7C7.7,2.6,7.7,2.7,7.7,2.7C7.7,2.7,7.7,2.7,7.7,2.7L7.7,2.7L7.7,2.7z M7.5,2.6L7.5,2.6L7.5,2.6
		c-0.1-0.1-0.1,0-0.1,0C7.4,2.6,7.4,2.6,7.5,2.6C7.5,2.7,7.5,2.7,7.5,2.6C7.5,2.7,7.5,2.7,7.5,2.6C7.5,2.6,7.5,2.6,7.5,2.6z"/>
</g>
<path class="st0" d="M9.1,2.7L8.7,2.6l0.1-0.1L9.1,2.7L8.8,2.5l0.2-0.3L8.8,2.4L8.7,2.3l0.3-0.1L8.8,2.3L9.2,2l0,0L8.7,2.2L8.5,1.8
	l0.1,0.5l-0.1,0l0-0.5v0v0l0,0v0v0L8.3,2.2L7.8,2l0,0l0.4,0.3L7.9,2.2l0.3,0.1L8.2,2.4L7.9,2.2l0.2,0.3L8,2.7l0.3-0.2l0.1,0.1L8,2.7
	l0.3-0.1L7.8,3l0,0l0.5-0.2l0.2,0.5L8.4,2.7l0.1,0l0,0.5v0v0l0,0v0v0l0.2-0.4L9.2,3l0,0L8.8,2.7L9.1,2.7z M8.5,1.8l0,0.5l-0.1,0
	L8.5,1.8z M8.4,2.6L8.3,2.5l0.1-0.1l0.1,0.1l0.1,0l0.1,0.1L8.6,2.6L8.5,2.5L8.4,2.6z M8.5,3.2l0-0.5l0.1,0L8.5,3.2z"/>
</svg>
