<?xml version="1.0" encoding="utf-8"?>
<!-- Generator: Adobe Illustrator 28.0.0, SVG Export Plug-In . SVG Version: 6.00 Build 0)  -->
<svg version="1.1" id="Layer_1" xmlns="http://www.w3.org/2000/svg" xmlns:xlink="http://www.w3.org/1999/xlink" x="0px" y="0px"
	 viewBox="0 0 243.8 59.9" style="enable-background:new 0 0 243.8 59.9;" xml:space="preserve">
<style type="text/css">
	.st0{fill:#010101;}
</style>
<g>
	<path d="M6.8,9L5.9,9H5V8.8c0.1,0,0.2,0,0.2,0c0.1,0,0.1-0.1,0.1-0.1c0-0.1,0-0.2-0.1-0.5C5.1,8,5.1,7.9,5,7.7H3.8
		C3.8,7.9,3.7,8,3.7,8.1C3.6,8.4,3.6,8.5,3.6,8.5c0,0.1,0.1,0.2,0.2,0.2c0,0,0.1,0,0.2,0V9L3.1,9H2.3V8.8c0.1,0,0.1,0,0.2,0
		c0.3,0,0.4-0.1,0.5-0.2c0.2-0.4,0.3-0.8,0.6-1.4C3.8,6.5,3.9,6.1,4,5.8c0.2-0.4,0.3-0.6,0.3-0.7l0.6-0.3l1.3,3.6
		c0,0.1,0.1,0.2,0.3,0.2c0.1,0,0.1,0,0.2,0V9z M4.9,7.4c0-0.1-0.1-0.3-0.1-0.5C4.6,6.6,4.5,6.3,4.4,5.9C4.4,6.1,4.3,6.3,4.1,6.8
		c0,0.1-0.1,0.3-0.2,0.6H4.9z"/>
	<path d="M8.6,9L7.8,9h-1V8.8c0.1,0,0.3,0,0.3-0.1c0.1,0,0.1-0.1,0.1-0.2V4.7c0-0.1,0-0.2-0.1-0.2C7,4.4,6.9,4.4,6.8,4.4l-0.2,0V4.2
		L8.1,4v4.5c0,0.1,0,0.2,0.1,0.2c0.1,0,0.2,0.1,0.3,0.1V9z M10.6,9l-1.3,0C9.1,8.7,8.9,8.5,8.8,8.3C8.4,7.9,8.2,7.6,8.2,7.6
		C8.4,7.3,8.6,7,8.7,6.8c0.1-0.2,0.2-0.5,0.2-0.7h1.4v0.2c-0.2,0-0.4,0-0.5,0c-0.1,0-0.2,0.1-0.3,0.2L8.9,7.2l1.2,1.4
		c0.1,0.1,0.1,0.1,0.2,0.1c0.1,0,0.2,0,0.3,0V9z"/>
	<path d="M13.7,8.9L12.5,9l-0.2-0.4c0,0.1-0.2,0.2-0.4,0.3C11.8,9,11.6,9,11.4,9c-0.3,0-0.5-0.1-0.6-0.3c-0.1-0.1-0.1-0.3-0.1-0.6
		c0-0.3,0.1-0.5,0.3-0.6c0.2-0.1,0.5-0.2,1.1-0.2h0.3V6.8c0-0.2,0-0.3-0.1-0.4c-0.1-0.1-0.1-0.1-0.2-0.1c-0.2,0-0.3,0-0.3,0.1
		c-0.1,0.1-0.1,0.3-0.1,0.5c0,0,0,0.1-0.1,0.1c-0.1,0-0.2,0-0.3,0h-0.3V6.7c0-0.2,0.1-0.4,0.3-0.5C11.2,6.1,11.5,6,11.9,6
		c0.5,0,0.8,0,0.9,0.1c0.2,0.1,0.3,0.3,0.3,0.7v1.3c0,0.2,0,0.3,0.1,0.4c0.1,0.1,0.1,0.1,0.3,0.1l0.1,0V8.9z M12.3,8.2V7.6h-0.2
		c-0.4,0-0.6,0.2-0.6,0.5c0,0.1,0,0.3,0.1,0.3c0.1,0.1,0.2,0.2,0.3,0.2c0.1,0,0.3,0,0.3-0.1C12.2,8.4,12.3,8.3,12.3,8.2z"/>
	<path d="M16.4,6.4c0,0.1,0,0.2-0.1,0.4C16.2,7,16.2,7,16.2,7c0,0-0.1-0.1-0.3-0.3c-0.1-0.1-0.2-0.1-0.3-0.1c-0.1,0-0.2,0.1-0.3,0.2
		c-0.1,0.2-0.1,0.3-0.1,0.5v1.1c0,0.1,0,0.1,0.1,0.2c0.1,0,0.2,0.1,0.4,0.1V9l-0.9,0h-0.9V8.8c0.1,0,0.2,0,0.3-0.1
		c0.1,0,0.1-0.1,0.1-0.2V6.8c0-0.1,0-0.2-0.1-0.2c-0.1-0.1-0.2-0.1-0.3-0.1c0,0-0.1,0-0.2,0c0,0,0,0-0.1,0V6.3
		c0.2,0,0.6-0.1,0.9-0.1c0.2,0,0.4-0.1,0.6-0.1l0.1,0.5c0.1-0.1,0.2-0.2,0.3-0.3c0.2-0.1,0.3-0.2,0.4-0.2c0.1,0,0.2,0,0.3,0.1
		C16.3,6.3,16.4,6.3,16.4,6.4z"/>
	<path d="M18.3,9l-0.8,0l-1,0V8.8c0.1,0,0.2,0,0.2,0c0.2,0,0.2-0.1,0.2-0.2V6.8c0-0.1,0-0.2-0.1-0.3c-0.1-0.1-0.2-0.1-0.4-0.1h-0.1
		V6.2c0.2,0,0.5,0,0.9-0.1c0.4-0.1,0.6-0.1,0.6-0.1v2.5c0,0.1,0.1,0.2,0.2,0.2c0,0,0.1,0,0.2,0V9z M17.9,4.8c0,0.1-0.1,0.2-0.2,0.3
		c-0.1,0.1-0.2,0.2-0.4,0.2c-0.1,0-0.2-0.1-0.3-0.2c-0.1-0.1-0.2-0.2-0.2-0.3c0-0.1,0-0.2,0.1-0.3c0.1-0.1,0.2-0.2,0.3-0.2
		c0.1,0,0.3,0,0.4,0.1C17.8,4.5,17.9,4.7,17.9,4.8z"/>
	<path d="M26.1,9l-1,0c-0.2,0-0.4,0-0.6,0c-0.2,0-0.4,0-0.4,0V8.8c0.2,0,0.3,0,0.3-0.1c0.1-0.1,0.2-0.3,0.2-0.6V5.8
		c-0.1,0.2-0.1,0.4-0.2,0.6c-0.1,0.4-0.3,0.8-0.4,1.3c-0.2,0.6-0.3,1-0.4,1.2c0,0-0.1,0.1-0.3,0.1c-0.1,0-0.2,0-0.3,0
		c-0.1-0.3-0.2-0.5-0.3-0.8C22.4,7.5,22.2,7,22,6.7c-0.2-0.6-0.4-0.8-0.4-0.9l0,2.7c0,0.1,0,0.2,0.1,0.2c0.1,0,0.2,0.1,0.4,0.1h0.2
		V9l-0.9,0c-0.2,0-0.3,0-0.5,0c-0.2,0-0.3,0-0.5,0V8.8c0.2,0,0.3,0,0.4-0.1C20.9,8.7,21,8.6,21,8.4l0-2.9c0-0.2-0.2-0.3-0.7-0.3V5
		l0.9,0l1,0c0.1,0.2,0.2,0.5,0.2,0.7c0.2,0.5,0.3,1,0.5,1.4c0.2,0.5,0.3,0.8,0.3,0.8c0.1-0.1,0.2-0.4,0.3-0.9
		c0.1-0.4,0.3-0.9,0.4-1.3c0.1-0.2,0.1-0.5,0.2-0.7L25,5l1,0v0.2c0,0-0.1,0-0.1,0c-0.1,0-0.3,0-0.4,0.1c-0.1,0.1-0.2,0.2-0.2,0.3
		l0,2.9c0,0.1,0.1,0.2,0.2,0.2c0.1,0.1,0.3,0.1,0.4,0.1V9z"/>
	<path d="M29.2,7.6l-1.8,0.2c0,0.3,0,0.5,0.1,0.6c0.1,0.2,0.4,0.3,0.7,0.3c0.2,0,0.4,0,0.6-0.1c0,0,0.1-0.1,0.3-0.1v0.3
		c-0.2,0.1-0.3,0.1-0.4,0.2c-0.3,0.1-0.6,0.2-0.9,0.2c-0.5,0-0.8-0.1-1-0.2c-0.3-0.2-0.4-0.6-0.4-1.3c0-0.6,0.1-1,0.4-1.2
		C27.1,6.2,27.5,6,28,6c0.6,0,0.9,0.1,1.1,0.4C29.2,6.7,29.2,7,29.2,7.6z M28.4,7.3c0-0.4,0-0.6-0.1-0.8c0-0.2-0.1-0.2-0.3-0.2
		c-0.2,0-0.4,0.1-0.5,0.3c-0.1,0.2-0.1,0.4-0.1,0.7v0.1c0.1,0,0.3,0,0.6-0.1C28.1,7.4,28.2,7.4,28.4,7.3z"/>
	<path d="M33.2,8.9L32.1,9l-0.2-0.4c-0.1,0.1-0.2,0.2-0.3,0.3C31.5,9,31.3,9,31.2,9c-0.4,0-0.7-0.1-0.9-0.4C30,8.4,29.9,8,29.9,7.5
		c0-0.5,0.1-0.9,0.4-1.1C30.5,6.2,30.9,6,31.5,6h0.4V4.6c0-0.1,0-0.1-0.1-0.2c-0.1,0-0.2-0.1-0.3-0.1l-0.3,0V4.2
		c0.3,0,0.5-0.1,0.6-0.1c0.4,0,0.7-0.1,0.9-0.1v4.4c0,0.2,0.1,0.3,0.4,0.3l0.1,0V8.9z M31.9,8V6.5c0,0,0-0.1-0.1-0.1
		c-0.1,0-0.2-0.1-0.3-0.1c-0.2,0-0.4,0.1-0.5,0.2c-0.2,0.2-0.3,0.5-0.3,0.9c0,0.4,0.1,0.7,0.2,0.9c0.1,0.2,0.3,0.3,0.5,0.3
		c0.1,0,0.3-0.1,0.3-0.2C31.9,8.3,31.9,8.2,31.9,8z"/>
	<path d="M35.3,9l-0.8,0l-1,0V8.8c0.1,0,0.2,0,0.2,0c0.2,0,0.2-0.1,0.2-0.2V6.8c0-0.1,0-0.2-0.1-0.3s-0.2-0.1-0.4-0.1h-0.1V6.2
		c0.2,0,0.5,0,0.9-0.1c0.4-0.1,0.6-0.1,0.6-0.1v2.5c0,0.1,0.1,0.2,0.2,0.2c0,0,0.1,0,0.2,0V9z M34.9,4.8c0,0.1-0.1,0.2-0.2,0.3
		c-0.1,0.1-0.2,0.2-0.4,0.2c-0.1,0-0.2-0.1-0.3-0.2c-0.1-0.1-0.2-0.2-0.2-0.3c0-0.1,0-0.2,0.1-0.3c0.1-0.1,0.2-0.2,0.3-0.2
		c0.1,0,0.3,0,0.4,0.1C34.8,4.5,34.9,4.7,34.9,4.8z"/>
	<path d="M38.8,8.9L37.7,9l-0.2-0.4c0,0.1-0.2,0.2-0.4,0.3C36.9,9,36.7,9,36.5,9C36.2,9,36,9,35.9,8.8c-0.1-0.1-0.1-0.3-0.1-0.6
		c0-0.3,0.1-0.5,0.3-0.6c0.2-0.1,0.5-0.2,1.1-0.2h0.3V6.8c0-0.2,0-0.3-0.1-0.4c-0.1-0.1-0.1-0.1-0.2-0.1c-0.2,0-0.3,0-0.3,0.1
		c-0.1,0.1-0.1,0.3-0.1,0.5c0,0,0,0.1-0.1,0.1c-0.1,0-0.2,0-0.3,0h-0.3V6.7c0-0.2,0.1-0.4,0.3-0.5C36.3,6.1,36.6,6,37.1,6
		c0.5,0,0.8,0,0.9,0.1c0.2,0.1,0.3,0.3,0.3,0.7v1.3c0,0.2,0,0.3,0.1,0.4c0.1,0.1,0.1,0.1,0.3,0.1l0.1,0V8.9z M37.4,8.2V7.6h-0.2
		c-0.4,0-0.6,0.2-0.6,0.5c0,0.1,0,0.3,0.1,0.3c0.1,0.1,0.2,0.2,0.3,0.2c0.1,0,0.3,0,0.3-0.1C37.4,8.4,37.4,8.3,37.4,8.2z"/>
</g>
<path class="st0" d="M50.2,9.3l-2.8-1.1L48,7.4L50.2,9.3L48.3,7l1.9-2.3L48,6.7l-0.7-0.9l2.8-1.1l-2.2,0.5L51.2,3l0,0l-4.3,2
	l-1.4-3.9l0.9,4.4l-0.5,0.1l-0.4-4.5V1.2v0l0,0v0v0.1L44.1,5l-4.2-2l0,0l3.3,2.3l-2.3-0.5l2.8,1.1L43,6.6l-2.2-1.9L42.7,7l-1.9,2.3
	L43,7.3l0.7,0.9l-2.8,1.1l2.2-0.5l-3.3,2.3l0,0l4.3-2l1.4,3.9l-0.9-4.4l0.5-0.1l0.4,4.5v0.1v0l0,0v0v-0.1L47,9l4.2,2l0,0L48,8.8
	L50.2,9.3z M45.5,1.3l-0.3,4.4l-0.7-0.2L45.5,1.3z M44.5,7.9L43.4,7l0.9-0.9l1.2,0.5l1.1-0.4l1.1,0.9L46.7,8l-1.2-0.5L44.5,7.9z
	 M45.6,12.7l0.3-4.4l0.7,0.2L45.6,12.7z"/>
</svg>
