<?xml version="1.0" encoding="utf-8"?>
<!-- Generator: Adobe Illustrator 28.0.0, SVG Export Plug-In . SVG Version: 6.00 Build 0)  -->
<svg version="1.1" id="Layer_1" xmlns="http://www.w3.org/2000/svg" xmlns:xlink="http://www.w3.org/1999/xlink" x="0px" y="0px"
	 viewBox="0 0 243.8 59.9" style="enable-background:new 0 0 243.8 59.9;" xml:space="preserve">
<style type="text/css">
	.st0{fill:#010101;}
	.st1{font-family:'Alagard';}
	.st2{font-size:15.142px;}
</style>
<path class="st0" d="M199.6,12.7l-1-0.4l0.2-0.3L199.6,12.7l-0.7-0.8l0.7-0.8l-0.8,0.7l-0.3-0.3l1-0.4l-0.8,0.2l1.2-0.8l0,0
	l-1.5,0.7l-0.5-1.4l0.3,1.6l-0.2,0l-0.1-1.6v0v0l0,0v0v0l-0.5,1.4l-1.5-0.7l0,0l1.2,0.8l-0.8-0.2l1,0.4l-0.2,0.3l-0.8-0.7l0.7,0.8
	l-0.7,0.8L197,12l0.3,0.3l-1,0.4l0.8-0.2l-1.2,0.8l0,0l1.5-0.7l0.5,1.4l-0.3-1.6l0.2,0l0.1,1.6v0v0l0,0v0v0l0.5-1.4l1.5,0.7l0,0
	l-1.2-0.8L199.6,12.7z M197.9,9.8l-0.1,1.6l-0.2-0.1L197.9,9.8z M197.5,12.2l-0.4-0.3l0.3-0.3l0.4,0.2l0.4-0.1l0.4,0.3l-0.3,0.3
	l-0.4-0.2L197.5,12.2z M197.9,13.9l0.1-1.6l0.2,0.1L197.9,13.9z"/>
<path class="st0" d="M203.6,12.7l-1-0.4l0.2-0.3L203.6,12.7l-0.7-0.8l0.7-0.8l-0.8,0.7l-0.3-0.3l1-0.4l-0.8,0.2l1.2-0.8l0,0
	l-1.5,0.7l-0.5-1.4l0.3,1.6l-0.2,0l-0.1-1.6v0v0l0,0v0v0l-0.5,1.4l-1.5-0.7l0,0l1.2,0.8l-0.8-0.2l1,0.4l-0.2,0.3l-0.8-0.7l0.7,0.8
	l-0.7,0.8L201,12l0.3,0.3l-1,0.4l0.8-0.2l-1.2,0.8l0,0l1.5-0.7l0.5,1.4l-0.3-1.6l0.2,0l0.1,1.6v0v0l0,0v0v0l0.5-1.4l1.5,0.7l0,0
	l-1.2-0.8L203.6,12.7z M201.9,9.8l-0.1,1.6l-0.2-0.1L201.9,9.8z M201.5,12.2l-0.4-0.3l0.3-0.3l0.4,0.2l0.4-0.1l0.4,0.3l-0.3,0.3
	l-0.4-0.2L201.5,12.2z M201.9,13.9l0.1-1.6l0.2,0.1L201.9,13.9z"/>
<path class="st0" d="M207.5,12.7l-1-0.4l0.2-0.3L207.5,12.7l-0.7-0.8l0.7-0.8l-0.8,0.7l-0.3-0.3l1-0.4l-0.8,0.2l1.2-0.8l0,0
	l-1.5,0.7l-0.5-1.4l0.3,1.6l-0.2,0l-0.1-1.6v0v0l0,0v0v0l-0.5,1.4l-1.5-0.7l0,0l1.2,0.8l-0.8-0.2l1,0.4l-0.2,0.3l-0.8-0.7l0.7,0.8
	l-0.7,0.8l0.8-0.7l0.3,0.3l-1,0.4l0.8-0.2l-1.2,0.8l0,0l1.5-0.7l0.5,1.4l-0.3-1.6l0.2,0l0.1,1.6v0v0l0,0v0v0l0.5-1.4l1.5,0.7l0,0
	l-1.2-0.8L207.5,12.7z M205.8,9.8l-0.1,1.6l-0.2-0.1L205.8,9.8z M205.4,12.2l-0.4-0.3l0.3-0.3l0.4,0.2l0.4-0.1l0.4,0.3l-0.3,0.3
	l-0.4-0.2L205.4,12.2z M205.8,13.9l0.1-1.6l0.2,0.1L205.8,13.9z"/>
<text transform="matrix(1 0 0 1 4.7404 13.9757)" class="st1 st2">Boiler Room (TM) Terminal</text>
</svg>
