<?xml version="1.0" encoding="utf-8"?>
<!-- Generator: Adobe Illustrator 28.0.0, SVG Export Plug-In . SVG Version: 6.00 Build 0)  -->
<svg version="1.1" id="Layer_1" xmlns="http://www.w3.org/2000/svg" xmlns:xlink="http://www.w3.org/1999/xlink" x="0px" y="0px"
	 viewBox="0 0 243.8 59.9" style="enable-background:new 0 0 243.8 59.9;" xml:space="preserve">
<style type="text/css">
	.st0{fill:#010101;}
</style>
<g>
	<path d="M12.2,18.7l-1.9,0H8.2v-0.5c0.2,0,0.4,0,0.5-0.1c0.1-0.1,0.2-0.2,0.2-0.3c0-0.1-0.1-0.5-0.3-1.1c-0.1-0.2-0.2-0.5-0.3-0.9
		H5.6c-0.1,0.3-0.2,0.6-0.3,0.8c-0.2,0.6-0.3,0.9-0.3,1c0,0.2,0.2,0.4,0.5,0.5c0.1,0,0.3,0.1,0.5,0.1v0.5l-1.9,0H2.3v-0.5
		c0.2,0,0.3,0,0.4,0c0.6-0.1,0.9-0.2,1-0.5c0.4-0.8,0.8-1.9,1.3-3.1c0.6-1.5,0.9-2.5,1.1-2.9c0.4-0.9,0.6-1.4,0.7-1.5l1.3-0.6
		l2.9,8.1c0.1,0.3,0.3,0.4,0.7,0.5c0.1,0,0.3,0,0.5,0.1V18.7z M8,15.1c0-0.2-0.1-0.6-0.3-1.2c-0.2-0.7-0.4-1.4-0.7-2.1
		c-0.1,0.3-0.3,0.9-0.7,1.9c-0.1,0.3-0.2,0.8-0.4,1.4H8z"/>
	<path d="M16.3,18.7l-1.9,0h-2.2v-0.5c0.3,0,0.6,0,0.8-0.1c0.2-0.1,0.3-0.2,0.3-0.4V9.1c0-0.2-0.1-0.4-0.3-0.5
		c-0.2-0.1-0.4-0.2-0.7-0.2l-0.4,0V7.9l3.4-0.4v10.1c0,0.2,0.1,0.3,0.3,0.4c0.2,0.1,0.4,0.1,0.8,0.1V18.7z M20.7,18.7l-2.9,0.1
		c-0.5-0.7-1-1.2-1.2-1.6c-0.8-1.1-1.3-1.6-1.3-1.7c0.6-0.7,1-1.2,1.2-1.6c0.3-0.5,0.4-1.1,0.4-1.7h3.1v0.4c-0.5,0-0.9,0-1,0.1
		c-0.2,0-0.4,0.2-0.6,0.4l-1.6,1.6l2.7,3.2c0.1,0.2,0.3,0.3,0.4,0.3c0.1,0,0.4,0,0.7,0V18.7z"/>
	<path d="M27.5,18.3l-2.5,0.4l-0.5-1c-0.1,0.3-0.4,0.5-0.9,0.7c-0.4,0.2-0.8,0.2-1.2,0.2c-0.7,0-1.1-0.2-1.4-0.6
		c-0.2-0.3-0.3-0.8-0.3-1.4c0-0.7,0.2-1.2,0.6-1.4c0.4-0.2,1.2-0.3,2.4-0.3h0.7v-1.3c0-0.4-0.1-0.7-0.3-0.9
		c-0.1-0.1-0.3-0.2-0.5-0.2c-0.3,0-0.6,0.1-0.7,0.3c-0.2,0.2-0.2,0.6-0.2,1.2c0,0.1-0.1,0.1-0.3,0.2c-0.2,0-0.4,0.1-0.7,0.1h-0.6
		v-0.8c0-0.5,0.2-0.9,0.6-1.2c0.4-0.2,1.1-0.4,2-0.4c1,0,1.7,0.1,2.1,0.3c0.5,0.2,0.7,0.7,0.7,1.5v2.9c0,0.4,0.1,0.8,0.2,0.9
		c0.1,0.1,0.3,0.2,0.6,0.2l0.2,0V18.3z M24.5,16.7v-1.1H24c-0.9,0-1.4,0.3-1.4,1c0,0.3,0,0.6,0.1,0.7c0.1,0.3,0.3,0.4,0.6,0.4
		c0.3,0,0.6-0.1,0.8-0.2C24.4,17.4,24.5,17.1,24.5,16.7z"/>
	<path d="M33.6,12.9c0,0.2-0.1,0.5-0.2,0.8c-0.1,0.3-0.2,0.5-0.3,0.5c0,0-0.3-0.2-0.7-0.6c-0.2-0.2-0.4-0.3-0.6-0.3
		c-0.3,0-0.6,0.2-0.7,0.5c-0.2,0.4-0.3,0.8-0.3,1.2v2.5c0,0.2,0.1,0.3,0.3,0.4c0.2,0.1,0.5,0.2,0.8,0.2v0.5l-2,0h-1.9v-0.5
		c0.3,0,0.5,0,0.7-0.1c0.1-0.1,0.2-0.2,0.2-0.3v-4c0-0.2-0.1-0.3-0.2-0.5C28.5,13.1,28.3,13,28,13c-0.1,0-0.2,0-0.4,0
		c0,0-0.1,0-0.1,0v-0.5c0.6-0.1,1.2-0.2,2.1-0.3c0.4-0.1,0.8-0.2,1.3-0.2l0.1,1.1c0.2-0.2,0.4-0.5,0.8-0.7c0.4-0.2,0.7-0.4,0.9-0.4
		c0.2,0,0.4,0.1,0.6,0.3C33.5,12.5,33.6,12.7,33.6,12.9z"/>
	<path d="M38,18.7l-1.9,0l-2.2,0v-0.5c0.2,0,0.4,0,0.5,0c0.4-0.1,0.5-0.3,0.5-0.5v-3.8c0-0.3-0.1-0.5-0.2-0.7
		c-0.2-0.2-0.4-0.2-0.8-0.2h-0.3v-0.5c0.5,0,1.1-0.1,1.9-0.2c0.8-0.1,1.3-0.2,1.4-0.2v5.6c0,0.2,0.2,0.4,0.5,0.5
		c0.1,0,0.3,0,0.5,0.1V18.7z M37,9.2c0,0.3-0.1,0.5-0.3,0.8c-0.2,0.2-0.5,0.4-0.8,0.4c-0.2,0-0.5-0.1-0.7-0.3
		c-0.3-0.2-0.4-0.5-0.4-0.7c0-0.3,0.1-0.5,0.3-0.8c0.2-0.2,0.5-0.4,0.7-0.4c0.3,0,0.6,0.1,0.8,0.3C36.9,8.7,37,8.9,37,9.2z"/>
	<path d="M55.2,18.7l-2.2,0c-0.4,0-0.9,0-1.4,0c-0.5,0-0.8,0-0.8,0v-0.4c0.4,0,0.6-0.1,0.8-0.2c0.2-0.2,0.4-0.6,0.4-1.3v-5.3
		c-0.2,0.5-0.3,0.9-0.5,1.3c-0.3,0.8-0.6,1.8-1,2.9C50,17,49.7,18,49.5,18.5c0,0.1-0.3,0.1-0.7,0.2c-0.1,0-0.4,0-0.7,0
		c-0.2-0.6-0.5-1.2-0.7-1.8c-0.6-1.5-1-2.6-1.3-3.4c-0.5-1.2-0.8-1.9-0.9-1.9l-0.1,6.1c0,0.2,0.1,0.4,0.3,0.5
		c0.2,0.1,0.5,0.2,0.9,0.2h0.4v0.5l-2,0c-0.4,0-0.8,0-1.1,0s-0.7,0-1.1,0v-0.4c0.4,0,0.7,0,0.9-0.1c0.3-0.1,0.4-0.4,0.4-0.7l0.1-6.4
		c0-0.5-0.5-0.8-1.5-0.8V9.7l2,0.1l2.2-0.1c0.2,0.5,0.3,1.1,0.5,1.6c0.4,1.1,0.7,2.2,1,3.1c0.4,1.1,0.6,1.7,0.7,1.8
		c0.1-0.2,0.4-0.9,0.8-2c0.3-1,0.6-2,0.9-3c0.1-0.5,0.3-1,0.4-1.5l1.7,0.1l2.3-0.1v0.5c-0.1,0-0.1,0-0.2,0c-0.3,0-0.6,0.1-0.9,0.2
		c-0.3,0.2-0.4,0.4-0.4,0.6l0.1,6.4c0,0.2,0.1,0.4,0.4,0.5c0.3,0.1,0.6,0.2,1,0.2V18.7z"/>
	<path d="M62.2,15.4l-4,0.4c0,0.6,0.1,1,0.3,1.3c0.3,0.5,0.8,0.7,1.6,0.7c0.5,0,0.9,0,1.2-0.1c0.1,0,0.3-0.1,0.7-0.3v0.7
		c-0.4,0.1-0.6,0.3-0.9,0.3c-0.7,0.2-1.3,0.3-1.9,0.3c-1,0-1.8-0.2-2.2-0.5c-0.6-0.5-0.9-1.4-0.9-2.8c0-1.2,0.3-2.1,0.9-2.7
		c0.5-0.5,1.3-0.7,2.4-0.7c1.3,0,2.1,0.3,2.5,1C62.1,13.4,62.2,14.2,62.2,15.4z M60.3,14.9c0-0.8-0.1-1.4-0.2-1.7
		c-0.1-0.3-0.3-0.5-0.7-0.5c-0.5,0-0.9,0.2-1.1,0.7c-0.2,0.4-0.2,0.9-0.2,1.5v0.3c0.2,0,0.6,0,1.2-0.1C59.6,15,59.9,15,60.3,14.9z"
		/>
	<path d="M71.2,18.4l-2.5,0.4l-0.4-1c-0.2,0.3-0.4,0.5-0.8,0.7c-0.3,0.2-0.6,0.3-0.9,0.3c-0.9,0-1.6-0.3-2.1-0.8
		c-0.6-0.6-0.9-1.5-0.9-2.7c0-1.2,0.3-2,0.8-2.5c0.6-0.5,1.5-0.7,2.8-0.7h0.9V8.9c0-0.2-0.1-0.3-0.2-0.4c-0.2-0.1-0.4-0.1-0.6-0.1
		l-0.6,0V7.9c0.6-0.1,1.1-0.1,1.4-0.1c0.9-0.1,1.6-0.2,2-0.3v9.7c0,0.4,0.3,0.6,0.8,0.6l0.2,0V18.4z M68.2,16.4V13
		c0-0.1-0.1-0.2-0.2-0.2c-0.2-0.1-0.3-0.1-0.6-0.1c-0.5,0-0.9,0.2-1.2,0.5c-0.4,0.4-0.6,1-0.6,1.9c0,0.8,0.2,1.5,0.5,2
		c0.3,0.5,0.7,0.8,1,0.8c0.3,0,0.6-0.1,0.8-0.4C68.1,17.1,68.2,16.8,68.2,16.4z"/>
	<path d="M75.8,18.7l-1.9,0l-2.2,0v-0.5c0.2,0,0.4,0,0.5,0c0.4-0.1,0.5-0.3,0.5-0.5v-3.8c0-0.3-0.1-0.5-0.2-0.7s-0.4-0.2-0.8-0.2
		h-0.3v-0.5c0.5,0,1.1-0.1,1.9-0.2c0.8-0.1,1.3-0.2,1.4-0.2v5.6c0,0.2,0.2,0.4,0.5,0.5c0.1,0,0.3,0,0.5,0.1V18.7z M74.8,9.2
		c0,0.3-0.1,0.5-0.3,0.8c-0.2,0.2-0.5,0.4-0.8,0.4c-0.2,0-0.5-0.1-0.7-0.3c-0.3-0.2-0.4-0.5-0.4-0.7c0-0.3,0.1-0.5,0.3-0.8
		c0.2-0.2,0.5-0.4,0.7-0.4c0.3,0,0.6,0.1,0.8,0.3C74.7,8.7,74.8,8.9,74.8,9.2z"/>
	<path d="M83.5,18.3L81,18.7l-0.5-1c-0.1,0.3-0.4,0.5-0.9,0.7c-0.4,0.2-0.8,0.2-1.2,0.2c-0.7,0-1.1-0.2-1.4-0.6
		c-0.2-0.3-0.3-0.8-0.3-1.4c0-0.7,0.2-1.2,0.6-1.4c0.4-0.2,1.2-0.3,2.4-0.3h0.7v-1.3c0-0.4-0.1-0.7-0.3-0.9
		c-0.1-0.1-0.3-0.2-0.5-0.2c-0.3,0-0.6,0.1-0.7,0.3c-0.2,0.2-0.2,0.6-0.2,1.2c0,0.1-0.1,0.1-0.3,0.2c-0.2,0-0.4,0.1-0.7,0.1h-0.6
		v-0.8c0-0.5,0.2-0.9,0.6-1.2c0.4-0.2,1.1-0.4,2-0.4c1,0,1.7,0.1,2.1,0.3c0.5,0.2,0.7,0.7,0.7,1.5v2.9c0,0.4,0.1,0.8,0.2,0.9
		c0.1,0.1,0.3,0.2,0.6,0.2l0.2,0V18.3z M80.5,16.7v-1.1H80c-0.9,0-1.4,0.3-1.4,1c0,0.3,0,0.6,0.1,0.7c0.1,0.3,0.3,0.4,0.6,0.4
		c0.3,0,0.6-0.1,0.8-0.2C80.4,17.4,80.5,17.1,80.5,16.7z"/>
</g>
<path class="st0" d="M109,19.2l-6.3-2.4l1.5-1.8L109,19.2l-4.2-5.1l4.1-5.1l-4.8,4.3l-1.7-1.9l6.3-2.4l-5,1.1l7.3-5.1l-0.1,0.1
	l-9.6,4.5l-3-8.6l1.9,9.8l-1.2,0.3l-0.8-9.9V1.2v0.1l0,0V1.2v0.2l-3.1,8.4l-9.5-4.5l-0.1-0.1l7.3,5.1L88,9.1l6.3,2.4l-1.5,1.8
	L88,9.1l4.2,5.1l-4.1,5.1l4.8-4.3l1.7,1.9l-6.3,2.4l5-1.1l-7.3,5.1l0.1-0.1l9.6-4.5l3,8.6l-1.9-9.8l1.2-0.3l0.8,9.9v0.2v-0.1l0,0
	v0.1v-0.2l3.1-8.4l9.5,4.5l0.1,0.1l-7.3-5.1L109,19.2z M98.5,1.5l-0.7,9.8L96.3,11L98.5,1.5z M96.2,16.2l-2.4-2.1l2.1-1.9l2.6,1
	l2.4-0.9l2.4,2.1l-2.1,1.9l-2.6-1L96.2,16.2z M98.6,27l0.7-9.8l1.5,0.4L98.6,27z"/>
</svg>
